<svg width="25" height="24" viewBox="0 0 25 24" fill="none" xmlns="http://www.w3.org/2000/svg">
<g id="Line">
<g id="LINE_LOGO_1_">
<path id="Vector" d="M22.5 10.5911C22.5 6.1297 18.0141 2.5 12.5 2.5C6.98683 2.5 2.5 6.1297 2.5 10.5911C2.5 14.5909 6.05797 17.9402 10.8635 18.5739C11.1887 18.6439 11.6321 18.7879 11.7445 19.0654C11.8458 19.3177 11.8101 19.7121 11.7773 19.9672C11.7773 19.9672 11.6602 20.6709 11.6349 20.8205C11.5908 21.0728 11.4343 21.8064 12.5009 21.3578C13.5685 20.9092 18.2597 17.9767 20.3573 15.5694C21.8055 13.9853 22.5 12.377 22.5 10.5911Z" fill="black"/>
<path id="Vector_2" d="M19.1726 13.1677H16.3673H16.3635C16.2576 13.1677 16.1723 13.0826 16.1723 12.977V12.9742V8.63054V8.6268C16.1723 8.5212 16.2576 8.43616 16.3635 8.43616H16.3673H19.1726C19.2776 8.43616 19.3638 8.52214 19.3638 8.6268V9.33424C19.3638 9.43984 19.2785 9.52488 19.1726 9.52488H17.2633V10.2594H19.1726C19.2776 10.2594 19.3638 10.3454 19.3638 10.4501V11.1575C19.3638 11.2631 19.2785 11.3481 19.1726 11.3481H17.2633V12.0827H19.1726C19.2776 12.0827 19.3638 12.1687 19.3638 12.2733V12.9808C19.3638 13.0826 19.2785 13.1677 19.1726 13.1677Z" fill="white"/>
<path id="Vector_3" d="M8.78081 13.1676C8.88579 13.1676 8.97202 13.0825 8.97202 12.9769V12.2695C8.97202 12.1648 8.88579 12.0789 8.78081 12.0789H6.87154V8.62485C6.87154 8.52018 6.78531 8.4342 6.68033 8.4342H5.9708C5.86489 8.4342 5.77959 8.51924 5.77959 8.62485V12.9732V12.976C5.77959 13.0816 5.86489 13.1666 5.9708 13.1666H5.97455H8.78081V13.1676Z" fill="white"/>
<path id="Vector_4" d="M10.4717 8.43518H9.76216C9.65718 8.43518 9.57095 8.52023 9.57095 8.62583V12.977C9.57095 13.0816 9.65625 13.1676 9.76216 13.1676H10.4717C10.5776 13.1676 10.6629 13.0826 10.6629 12.977V8.62583C10.6629 8.52116 10.5776 8.43518 10.4717 8.43518Z" fill="white"/>
<path id="Vector_5" d="M15.2997 8.43518H14.5902C14.4843 8.43518 14.399 8.52023 14.399 8.62583V11.2098L12.4025 8.52116C12.3978 8.51462 12.3922 8.50808 12.3875 8.50153L12.3866 8.5006C12.3828 8.49686 12.3791 8.49219 12.3753 8.48845C12.3744 8.48751 12.3725 8.48658 12.3716 8.48565C12.3678 8.48285 12.365 8.48004 12.3613 8.47724C12.3594 8.4763 12.3575 8.47443 12.3557 8.4735C12.3528 8.4707 12.3491 8.46883 12.3453 8.46696C12.3435 8.46602 12.3416 8.46416 12.3397 8.46322C12.336 8.46135 12.3332 8.45948 12.3294 8.45761C12.3275 8.45668 12.3257 8.45574 12.3238 8.45481C12.32 8.45294 12.3163 8.45107 12.3125 8.45014C12.3107 8.4492 12.3088 8.44827 12.306 8.44827C12.3022 8.44733 12.2985 8.44546 12.2947 8.44453C12.2929 8.44359 12.29 8.44359 12.2882 8.44266C12.2844 8.44172 12.2807 8.44079 12.2769 8.43986C12.2741 8.43892 12.2713 8.43892 12.2685 8.43892C12.2647 8.43799 12.2619 8.43799 12.2582 8.43799C12.2544 8.43799 12.2516 8.43799 12.2479 8.43705C12.246 8.43705 12.2432 8.43705 12.2413 8.43705H11.5365C11.4315 8.43705 11.3453 8.52209 11.3453 8.62769V12.9788C11.3453 13.0835 11.4305 13.1695 11.5365 13.1695H12.246C12.3519 13.1695 12.4372 13.0844 12.4372 12.9788V10.3949L14.4364 13.0873C14.4505 13.1069 14.4674 13.1228 14.4861 13.1349C14.4871 13.1359 14.488 13.1358 14.488 13.1368C14.4917 13.1396 14.4955 13.1415 14.5002 13.1443C14.5021 13.1452 14.5039 13.1461 14.5058 13.1471C14.5086 13.1489 14.5124 13.1499 14.5152 13.1517C14.518 13.1536 14.5217 13.1545 14.5246 13.1555C14.5264 13.1564 14.5283 13.1573 14.5302 13.1573C14.5349 13.1592 14.5386 13.1601 14.5433 13.1611C14.5442 13.1611 14.5452 13.162 14.5461 13.162C14.562 13.1658 14.5789 13.1686 14.5958 13.1686H15.3006C15.4056 13.1686 15.4918 13.0835 15.4918 12.9779V8.62676C15.4909 8.52116 15.4056 8.43518 15.2997 8.43518Z" fill="white"/>
</g>
</g>
</svg>
