<svg width="24" height="24" viewBox="0 0 24 24" fill="none" xmlns="http://www.w3.org/2000/svg">
<path fill-rule="evenodd" clip-rule="evenodd" d="M20.4996 21.9998H4.49965C4.36265 21.9998 4.23165 21.9438 4.13865 21.8458C4.04365 21.7458 3.99365 21.6128 4.00065 21.4768L4.62365 8.06383C4.63565 7.79783 4.85465 7.58783 5.12265 7.58783H19.8766C20.1446 7.58783 20.3636 7.79783 20.3756 8.06383L20.9986 21.4768C21.0056 21.6128 20.9556 21.7458 20.8606 21.8458C20.7676 21.9438 20.6366 21.9998 20.4996 21.9998" fill="black"/>
<path fill-rule="evenodd" clip-rule="evenodd" d="M9.07094 10.823H9.06694C8.79094 10.821 8.56894 10.595 8.57094 10.319C8.57794 9.468 8.74394 2 12.4989 2C16.2549 2 16.4219 9.468 16.4279 10.319C16.4299 10.595 16.2089 10.821 15.9319 10.823H15.9279C15.6539 10.823 15.4299 10.601 15.4279 10.327C15.4119 8.289 14.8519 3 12.4989 3C10.1429 3 9.58694 8.289 9.57094 10.327C9.56894 10.601 9.34494 10.823 9.07094 10.823" fill="black"/>
<path d="M9.58275 11.9878V17.9998H10.3928V11.2138H8.87175L8.40375 11.9878H9.58275ZM14.5519 17.2258L16.7839 14.4988C17.0989 14.1118 17.2879 13.6078 17.2879 13.1038C17.2879 11.9248 16.2979 11.0698 15.1459 11.0698C13.9129 11.0698 13.1299 11.8798 12.9949 13.0858H13.8409C13.8859 12.4018 14.4529 11.8438 15.1459 11.8438C15.8479 11.8438 16.4779 12.4288 16.4779 13.1398C16.4779 13.5898 16.1539 14.0128 15.8749 14.3548L12.9049 17.9998H17.2879V17.2258H14.5519Z" fill="#FCEFF3"/>
</svg>
