<svg width="25" height="24" viewBox="0 0 25 24" fill="none" xmlns="http://www.w3.org/2000/svg">
<path fill-rule="evenodd" clip-rule="evenodd" d="M12.8468 4.00001C12.846 4.00001 12.8451 4.00002 12.8442 4.00003L12.2763 4.00601L12.1754 4.00069C12.1667 4.00023 12.1579 4 12.1491 4C9.01781 4 6 6.64839 6 10.2526C6 12.9853 7.60259 15.4149 9.12765 17.1184C9.89784 17.9787 10.6666 18.6743 11.2425 19.1548C11.5308 19.3953 11.7717 19.5827 11.9416 19.7107C12.0266 19.7748 12.0939 19.824 12.1405 19.8576C12.1638 19.8744 12.182 19.8873 12.1946 19.8963L12.2094 19.9067L12.2136 19.9096L12.2148 19.9105C12.215 19.9106 12.2156 19.911 12.5004 19.5L12.2148 19.9105C12.3861 20.0292 12.6138 20.0297 12.7851 19.911L12.5004 19.5C12.7851 19.911 12.785 19.9111 12.7851 19.911L12.7872 19.9096L12.7914 19.9066L12.8061 19.8962C12.8188 19.8873 12.8369 19.8744 12.8602 19.8576C12.9068 19.824 12.9741 19.7747 13.0591 19.7107C13.2289 19.5827 13.4698 19.3953 13.7581 19.1547C14.334 18.6743 15.1026 17.9787 15.8727 17.1184C17.3976 15.4149 19 12.9853 19 10.2526C19 6.64847 15.981 4.00034 12.8501 4C12.849 4 12.8479 4 12.8468 4.00001ZM12.5003 18.8795C12.6557 18.7615 12.8673 18.5957 13.1175 18.3869C13.6666 17.9288 14.3978 17.2668 15.1276 16.4514C16.6026 14.8037 18 12.6095 18 10.2526C18 7.22873 15.4576 5.00146 12.852 5L12.271 5.00612C12.2605 5.00623 12.2499 5.00601 12.2394 5.00545L12.1363 5.00002C9.53447 5.00731 7 7.23254 7 10.2526C7 12.6095 8.39758 14.8037 9.87271 16.4514C10.6026 17.2667 11.3339 17.9287 11.8831 18.3869C12.1333 18.5957 12.345 18.7615 12.5003 18.8795Z" fill="black"/>
<path fill-rule="evenodd" clip-rule="evenodd" d="M12.5 8C11.119 8 10 9.11902 10 10.5C10 11.881 11.119 13 12.5 13C13.8803 13 15 11.8809 15 10.5C15 9.11911 13.8803 8 12.5 8ZM12.5 14C14.4324 14 16 12.4333 16 10.5C16 8.56665 14.4324 7 12.5 7C10.5667 7 9 8.56674 9 10.5C9 12.4333 10.5667 14 12.5 14Z" fill="black"/>
</svg>
