<svg width="24" height="24" viewBox="0 0 24 24" fill="none" xmlns="http://www.w3.org/2000/svg">
<path fill-rule="evenodd" clip-rule="evenodd" d="M10.5667 14.4672C10.5667 13.5536 11.3337 12.85 12.2333 12.85C13.1333 12.85 13.9 13.5537 13.9 14.4672C13.9 14.8969 13.7272 15.2825 13.4533 15.5681V17.4579C13.4533 17.9703 13.0238 18.35 12.5435 18.35H11.9231C11.4424 18.35 11.0137 17.9699 11.0137 17.4579V15.5681C10.7398 15.2826 10.5667 14.8971 10.5667 14.4672ZM12.2333 13.85C11.8446 13.85 11.5667 14.1464 11.5667 14.4672C11.5667 14.6541 11.6576 14.8279 11.8146 14.9462L12.0137 15.0962V17.35H12.4533V15.0962L12.6524 14.9462C12.8091 14.8281 12.9 14.6544 12.9 14.4672C12.9 14.1464 12.6223 13.85 12.2333 13.85Z" fill="black"/>
<path fill-rule="evenodd" clip-rule="evenodd" d="M7.3 8.80005V7.06004C7.30794 5.84443 7.79777 4.68162 8.66203 3.82673C9.52629 2.97185 10.6944 2.49472 11.91 2.50004H12.09C13.45 2.50004 16 3.13004 16 5.50004H15C15 3.50004 12.21 3.50004 12.09 3.50004H11.91C10.9596 3.49472 10.0459 3.86648 9.36913 4.53383C8.69241 5.20118 8.30793 6.10965 8.3 7.06004V8.80005H17.7281C18.7059 8.80005 19.5 9.59183 19.5 10.5699V19.7299C19.5 20.7082 18.706 21.5 17.7281 21.5H6.27195C5.29398 21.5 4.5 20.7082 4.5 19.7299V10.5699C4.5 9.59183 5.29405 8.80005 6.27195 8.80005H7.3ZM5.5 10.5699C5.5 10.1456 5.84486 9.80005 6.27195 9.80005H17.7281C18.1551 9.80005 18.5 10.1456 18.5 10.5699V19.7299C18.5 20.1546 18.1551 20.5 17.7281 20.5H6.27195C5.84494 20.5 5.5 20.1546 5.5 19.7299V10.5699Z" fill="black"/>
</svg>
