<svg width="24" height="24" viewBox="0 0 24 24" fill="none" xmlns="http://www.w3.org/2000/svg" class="icon-object-gift"><g fill-rule="evenodd" clip-rule="evenodd" fill="#000"><path d="M19.62 11.524c.233 0 .427.168.468.39l.007.086v9.524a.476.476 0 0 1-.39.468l-.086.008H4.381a.476.476 0 0 1-.468-.39l-.008-.086V12a.476.476 0 0 1 .945-.086l.007.086v9.048h14.286V12c0-.234.168-.428.39-.469l.086-.007Z"/><path d="M21.524 6.762H2.476A.476.476 0 0 0 2 7.238V12c0 .263.213.476.476.476h19.048A.476.476 0 0 0 22 12V7.238a.476.476 0 0 0-.476-.476Zm-.476.952v3.81H2.952v-3.81h18.096Z"/><path d="M12 6.762c.234 0 .428.168.469.39l.007.086v14.286a.476.476 0 0 1-.945.085l-.007-.085V7.238c0-.263.213-.476.476-.476Z"/><path d="M7.714 2a2.857 2.857 0 1 0 0 5.714H12c.3 0 .526-.275.467-.57l-.045-.2a9.57 9.57 0 0 0-.169-.594 9.602 9.602 0 0 0-.729-1.722C10.631 3.003 9.377 2 7.714 2Zm0 .952c1.254 0 2.233.783 2.976 2.135l.156.299c.199.404.365.828.5 1.252l.037.124H7.714a1.905 1.905 0 1 1 0-3.81Z"/><path d="M16.286 2c-1.663 0-2.917 1.003-3.81 2.628a9.601 9.601 0 0 0-.729 1.722l-.098.326a6.53 6.53 0 0 0-.116.469.476.476 0 0 0 .467.57h4.286a2.857 2.857 0 1 0 0-5.715Zm0 .952c1.052 0 1.904.853 1.904 1.905L18.186 5a1.905 1.905 0 0 1-1.9 1.763h-3.669l.039-.124c.168-.53.385-1.06.655-1.551.743-1.352 1.722-2.135 2.976-2.135Z"/></g></svg>