<svg fill="none" height="24" viewBox="0 0 24 24" width="24" xmlns="http://www.w3.org/2000/svg"><path clip-rule="evenodd" d="m7.69731 4c1.85992 0 3.16479.65404 3.95989 1.76968.1327.18616.2475.38145.3452.57928.6505-1.25534 2.0094-2.34896 3.9272-2.34896 2.8121 0 3.9851 1.36508 4.4957 3.65945.3312 1.48822-.4525 3.97925-2.09 6.11145-.4589.5976-1.1056 1.3131-1.9069 2.1242-.2448.2478-.5023.5028-.7711.7639-.7394.718-1.5307 1.4505-2.3219 2.1588-.2768.2479-.534.4751-.7648.6768-.1388.1213-.2382.2073-.2917.2531l-.2942.2523-.2805-.2681c-.0437-.0418-.1251-.1198-.2392-.2295-.1901-.1825-.4018-.3866-.6298-.6071-.6515-.6302-1.30301-1.2663-1.91136-1.8685l-.15313-.1517c-1.20842-1.1993-2.0658-2.0872-2.44972-2.5545-.09807-.1194-.49737-.5937-.48032-.5733-.21276-.2543-.37915-.4595-.54198-.6717-1.16984-1.5239-1.79869-3.0035-1.79869-4.83756 0-2.40725 1.34051-4.23804 4.19731-4.23804zm1.82951 12.3955c.60568.5995 1.25498 1.2333 1.90418 1.8613.2099.203.4059.392.5838.563.2263-.1978.4783-.4205.7494-.6632.7831-.7011 1.566-1.4259 2.296-2.1348.2647-.2571.5179-.5078.7583-.7511.778-.7876 1.4025-1.4785 1.8354-2.0422 1.4908-1.9413 2.1943-4.1771 1.9278-5.37445-.4313-1.93795-1.321-2.97342-3.6521-2.97342-1.2682 0-2.1823.51676-2.8076 1.40033-.429.60616-.6892 1.39104-.6892 1.73551h-.865c0-.43895-.1959-1.14751-.6107-1.72962-.6297-.8835-1.67256-1.40622-3.25979-1.40622-2.31473 0-3.33232 1.38976-3.33232 3.35741 0 1.60938.55401 2.91286 1.61526 4.29536.15415.2008.31336.3972.5189.6429-.02028-.0243.38333.4551.48534.5793.35765.4353 1.20489 1.3128 2.39 2.4889z" fill="#000" fill-rule="evenodd"/></svg>