<svg width="16" height="16" viewBox="0 0 16 16" fill="none" xmlns="http://www.w3.org/2000/svg">
<path fill-rule="evenodd" clip-rule="evenodd" d="M9.44019 5.59238C9.23366 5.77355 8.98491 5.86413 8.69397 5.86413C8.40302 5.86413 8.15338 5.77355 7.94504 5.59238C7.73671 5.41122 7.63254 5.19196 7.63254 4.9346C7.63254 4.67725 7.73671 4.45714 7.94504 4.27429C8.15338 4.09143 8.40302 4 8.69397 4C8.98491 4 9.23366 4.09143 9.44019 4.27429C9.64673 4.45714 9.75 4.67725 9.75 4.9346C9.75 5.19196 9.64673 5.41122 9.44019 5.59238ZM8.66703 11.8959C8.4551 11.9653 8.20905 12 7.92888 12C7.49784 12 7.1629 11.901 6.92403 11.7029C6.68517 11.5048 6.56573 11.2533 6.56573 10.9486C6.56573 10.8301 6.57471 10.709 6.59267 10.5854C6.61063 10.4618 6.63937 10.3221 6.67888 10.1663L7.12069 8.68317C7.1602 8.54095 7.19343 8.40635 7.22037 8.27937C7.24731 8.15238 7.26078 8.0364 7.26078 7.93143C7.26078 7.7418 7.21947 7.60974 7.13685 7.53524C7.05424 7.46074 6.89619 7.42349 6.66272 7.42349C6.54777 7.42349 6.43014 7.44042 6.30981 7.47429C6.18948 7.50815 6.08621 7.54032 6 7.57079L6.11853 7.11365C6.40948 7.0019 6.68786 6.90624 6.95366 6.82667C7.21947 6.74709 7.47091 6.7073 7.70797 6.7073C8.13542 6.7073 8.46498 6.80466 8.69666 6.99937C8.92834 7.19407 9.04418 7.4472 9.04418 7.75873C9.04418 7.82307 9.0361 7.93651 9.01994 8.09905C9.00377 8.26159 8.97414 8.41058 8.93103 8.54603L8.48922 10.0241C8.4533 10.1426 8.42098 10.2781 8.39224 10.4305C8.36351 10.5829 8.34914 10.698 8.34914 10.7759C8.34914 10.9723 8.39583 11.106 8.48922 11.1771C8.58261 11.2483 8.74425 11.2838 8.97414 11.2838C9.0819 11.2838 9.20402 11.266 9.34052 11.2305C9.47701 11.1949 9.57579 11.1636 9.63685 11.1365L9.51832 11.5937C9.16272 11.7257 8.87895 11.8265 8.66703 11.8959Z" fill="#575757"/>
<path fill-rule="evenodd" clip-rule="evenodd" d="M8 0C12.4183 0 16 3.58172 16 8C16 12.4183 12.4183 16 8 16C3.58172 16 0 12.4183 0 8C0 3.58172 3.58172 0 8 0ZM8 1C4.13401 1 1 4.13401 1 8C1 11.866 4.13401 15 8 15C11.866 15 15 11.866 15 8C15 4.13401 11.866 1 8 1Z" fill="#575757"/>
</svg>
