<svg width="24" height="24" viewBox="0 0 24 24" fill="none" xmlns="http://www.w3.org/2000/svg">
<path fill-rule="evenodd" clip-rule="evenodd" d="M21.8598 12.0001C21.8598 6.55458 17.4454 2.14014 11.9999 2.14014C6.55437 2.14014 2.13992 6.55458 2.13992 12.0001C2.13992 14.246 2.89362 16.3784 4.25603 18.1041L4.60784 18.5498L4.95961 18.1041C6.64971 15.9627 9.21942 14.6892 11.9999 14.6892C14.7806 14.6892 17.3502 15.963 19.0393 18.1048L19.391 18.5508L19.743 18.105C21.106 16.3785 21.8598 14.2462 21.8598 12.0001ZM20.9636 12.0001C20.9636 13.7444 20.4643 15.4117 19.5468 16.839L19.3699 17.1037L19.1684 16.8836C17.3281 14.9327 14.7577 13.7928 12 13.7928C9.14046 13.7928 6.48206 15.0185 4.62957 17.103C3.60004 15.6197 3.03643 13.8533 3.03643 12.0001C3.03643 7.04965 7.04957 3.03652 12 3.03652C16.9505 3.03652 20.9636 7.04965 20.9636 12.0001Z" fill="black"/>
<path fill-rule="evenodd" clip-rule="evenodd" d="M22 12C22 6.47715 17.5228 2 12 2C6.47715 2 2 6.47715 2 12C2 17.5228 6.47715 22 12 22C17.5228 22 22 17.5228 22 12ZM3.17664 12C3.17664 7.12686 7.12707 3.17643 12.0002 3.17643C16.8733 3.17643 20.8237 7.12686 20.8237 12C20.8237 16.8731 16.8733 20.8235 12.0002 20.8235C7.12707 20.8235 3.17664 16.8731 3.17664 12Z" fill="black"/>
<path fill-rule="evenodd" clip-rule="evenodd" d="M16.622 10.2073C16.622 7.65472 14.5527 5.58545 12.0001 5.58545C9.44757 5.58545 7.3783 7.65472 7.3783 10.2073C7.3783 12.7599 9.44757 14.8291 12.0001 14.8291C14.5527 14.8291 16.622 12.7599 16.622 10.2073ZM8.55493 10.2073C8.55493 8.30443 10.0975 6.76188 12.0003 6.76188C13.9031 6.76188 15.4457 8.30443 15.4457 10.2073C15.4457 12.1101 13.9031 13.6526 12.0003 13.6526C10.0975 13.6526 8.55493 12.1101 8.55493 10.2073Z" fill="black"/>
</svg>
