<svg width="30" height="30" viewBox="0 0 30 30" fill="none" xmlns="http://www.w3.org/2000/svg">
<g clip-path="url(#clip0_16:15)">
<path d="M9.56608 29.5V29.195C9.56608 28.2449 10.0241 27.1657 11.0105 25.1481L13.5119 20.1041L13.0892 19.9047C12.0088 21.3358 10.259 24.1745 6.52448 24.1745C2.96616 24.1745 0.5 21.3475 0.5 17.6642C0.5 14.1452 2.93093 11.4472 6.21915 8.79619L15.1443 1.5H15.3557L24.2809 8.79619C27.5691 11.4472 30.0117 14.1452 30.0117 17.6525C30.0117 21.3475 27.5338 24.1862 23.9755 24.1862C20.2293 24.1862 18.4912 21.3358 17.4108 19.9164L16.9881 20.1158L19.4895 25.1598C20.4759 27.1774 20.9339 28.2566 20.9339 29.2067V29.5117L9.56608 29.5Z" fill="black"/>
</g>
<defs>
<clipPath id="clip0_16:15">
<rect width="30" height="30" fill="white"/>
</clipPath>
</defs>
</svg>
