<svg width="24" height="25" viewBox="0 0 24 25" fill="none" xmlns="http://www.w3.org/2000/svg">
<path d="M12.84 3.18696L12.8666 2.75017L12.8533 2.74936H12.84V3.18696ZM12.3578 3.18696L12.3567 3.62454H12.3578V3.18696ZM8.52068 4.09601L8.71628 4.48748L8.71795 4.48661L8.52068 4.09601ZM3.77804 11.7666L3.34035 11.7665L3.34044 11.772L3.77804 11.7666ZM3.78102 12.0162L3.34342 12.0216L3.34359 12.028L3.78102 12.0162ZM4.57771 15.3794L4.18142 15.5651L4.18379 15.5699L4.57771 15.3794ZM4.61587 15.4581L5.03098 15.5965L5.08726 15.4278L5.0098 15.2676L4.61587 15.4581ZM2.8333 20.8069L2.41815 20.6686L2.41378 20.6818L2.41023 20.6952L2.8333 20.8069ZM2.82018 20.8567L2.3971 20.7448L2.39349 20.7586L2.39076 20.7724L2.82018 20.8567ZM8.66596 19.5082L8.80433 19.9233L9.82193 19.5841L8.71795 19.047L8.66596 19.5082ZM8.52068 19.4376L8.5275 19.0931L8.32341 19.8282L8.52068 19.4376ZM20.0293 15.6025L19.6387 15.4052L19.6378 15.4069L20.0293 15.6025ZM20.9376 11.7658H20.5V11.767L20.9376 11.7658ZM20.9376 11.2847H21.3752V11.2726L21.3746 11.2606L20.9376 11.2847ZM13.0326 3.1987L13.0653 2.76229L13.0592 2.76192L13.0326 3.1987ZM12.84 2.74936H12.3578V3.62454H12.84V2.74936ZM12.359 2.74936C10.9579 2.74574 9.57477 3.07332 8.32341 3.7054L8.71795 4.48661C9.84643 3.91668 11.0935 3.6213 12.3567 3.62454L12.359 2.74936ZM8.32507 3.70462C5.27184 5.23053 3.34167 8.35168 3.34035 11.7665L4.21564 11.7668C4.21678 8.68338 5.95966 5.86514 8.71628 4.48748L8.32507 3.70462ZM3.34044 11.772L3.34342 12.0216L4.21862 12.0109L4.21556 11.7613L3.34044 11.772ZM3.34359 12.028C3.3765 13.2517 3.66173 14.456 4.18142 15.5651L4.97401 15.1937C4.50542 14.1937 4.2482 13.1077 4.21844 12.0044L3.34359 12.028ZM4.18379 15.5699L4.22186 15.6487L5.0098 15.2676L4.97173 15.1889L4.18379 15.5699ZM4.20068 15.3198L2.41815 20.6686L3.24846 20.9453L5.03098 15.5965L4.20068 15.3198ZM2.41023 20.6952L2.3971 20.7448L3.24329 20.9684L3.25642 20.9188L2.41023 20.6952ZM2.39076 20.7724C2.27266 21.3743 2.8483 21.909 3.45605 21.7065L3.17923 20.8762C3.18509 20.8742 3.19638 20.8728 3.20899 20.8757C3.22028 20.8781 3.22815 20.883 3.2334 20.8876C3.24286 20.896 3.25441 20.9163 3.24959 20.9409L2.39076 20.7724ZM3.45605 21.7065L8.80433 19.9233L8.5275 19.0931L3.17923 20.8762L3.45605 21.7065ZM8.71795 19.047L8.5275 19.0931L8.32918 19.8311L8.47447 19.9017L8.71795 19.047ZM8.32341 19.8282C9.57486 20.4603 10.9579 20.7879 12.3599 20.7842L12.3586 19.909C11.0945 19.9123 9.84635 19.6169 8.71795 19.047L8.32341 19.8282ZM12.3599 20.7842C15.7739 20.7829 18.8941 18.8527 20.4207 15.7981L19.6378 15.4069C18.2594 18.165 15.4412 19.9078 12.3586 19.909L12.3599 20.7842ZM20.4199 15.7997C21.0513 14.5498 21.3789 13.1667 21.3752 11.7647L20.5 11.767C20.5033 13.0312 20.208 14.2783 19.6387 15.4052L20.4199 15.7997ZM21.3752 11.7658V11.2847H20.5V11.7658H21.3752ZM21.3746 11.2606C21.1247 6.72109 17.561 3.09968 13.0653 2.76229L12.9999 3.63513C17.0567 3.93952 20.275 7.20761 20.5007 11.3086L21.3746 11.2606ZM13.0592 2.76192L12.8666 2.75017L12.8134 3.62375L13.0059 3.63547L13.0592 2.76192Z" fill="black"/>
</svg>
