<svg width="24" height="24" viewBox="0 0 24 24" fill="none" xmlns="http://www.w3.org/2000/svg">
<path fill-rule="evenodd" clip-rule="evenodd" d="M6.75 21H17.25C18.2144 21 19 20.2601 19 19.35V11.65C19 10.7399 18.2144 10 17.25 10H6.75C5.78556 10 5 10.7399 5 11.65V19.35C5 20.2601 5.78556 21 6.75 21ZM6.16667 11.65C6.16667 11.3464 6.42871 11.1 6.75 11.1H17.25C17.5713 11.1 17.8333 11.3464 17.8333 11.65V19.35C17.8333 19.6536 17.5713 19.9 17.25 19.9H6.75C6.42871 19.9 6.16667 19.6536 6.16667 19.35V11.65Z" fill="black"/>
<path d="M15.9375 11C15.627 11 15.375 10.744 15.375 10.4286V7.57143C15.375 5.68108 13.8608 4.14286 12 4.14286C10.1392 4.14286 8.625 5.68108 8.625 7.57143V10.4286C8.625 10.744 8.373 11 8.0625 11C7.752 11 7.5 10.744 7.5 10.4286V7.57143C7.5 5.05022 9.51819 3 12 3C14.4818 3 16.5 5.05022 16.5 7.57143V10.4286C16.5 10.744 16.248 11 15.9375 11Z" fill="black"/>
</svg>
