<svg width="24" height="24" viewBox="0 0 24 24" fill="none" xmlns="http://www.w3.org/2000/svg">
<path fill-rule="evenodd" clip-rule="evenodd" d="M7.23 23.0734V22.6015C7.23334 21.8542 7.29 21.438 8.24667 19.8059L10.5633 15.8762L9.77334 15.4862C8.95334 16.8431 7.6 19.0848 4.84 19.0815C1.99334 19.0783 -0.00332917 16.9184 4.16733e-06 14.0114C0.0033375 11.2419 2.09 9.11162 4.65334 6.9518L11.7567 1H12.21L19.3 6.96163C21.8633 9.12473 24 11.2026 24 13.972C23.9933 16.8791 21.9367 19.0947 19.0967 19.0914C16.33 19.0914 14.9833 16.8496 14.1667 15.4928L13.3767 15.8762L15.6833 19.8124C16.6433 21.4446 16.7 21.8641 16.7 22.6081L16.7 23.08L7.23 23.0734Z" fill="black"/>
</svg>
