<svg width="24" height="24" viewBox="0 0 24 24" fill="none" xmlns="http://www.w3.org/2000/svg">
<path d="M12 19.3412C11.847 19.3412 11.7012 19.2788 11.5953 19.1694L5.83998 13.2071C5.3741 12.7141 4.98587 12.1988 4.68116 11.6706C4.49881 11.3541 4.34351 11.0341 4.22116 10.72C3.60704 9.15647 3.92704 7.4 5.05763 6.13529C6.17057 4.88941 7.85293 4.38117 9.44587 4.80823C10.7588 5.16 11.547 5.99294 12.0012 6.7047C12.4541 5.99294 13.2435 5.16117 14.5565 4.80823C16.1494 4.38 17.8317 4.88941 18.9447 6.13529C20.0753 7.4 20.3953 9.15764 19.7812 10.72C19.6576 11.0341 19.5023 11.3541 19.3212 11.6706C19.0176 12.1988 18.6294 12.7141 18.167 13.2035L12.407 19.1706C12.2988 19.28 12.1529 19.3412 12 19.3412V19.3412ZM8.30234 5.78235C7.39881 5.78235 6.53881 6.16823 5.89763 6.88588C5.05175 7.83176 4.81175 9.14352 5.2694 10.3082C5.37293 10.5706 5.50351 10.84 5.65763 11.1094C5.91763 11.5612 6.25292 12.0047 6.6541 12.4294L12.0012 17.9682L17.3517 12.4259C17.7494 12.0059 18.0847 11.5612 18.3447 11.1094C18.4988 10.8412 18.6294 10.5718 18.7329 10.3082C19.1906 9.14352 18.9506 7.83176 18.1047 6.88588C17.2635 5.9447 16.047 5.57529 14.8482 5.89647C13.0459 6.38 12.5659 8.10235 12.5459 8.17529C12.48 8.42235 12.2506 8.59294 11.9988 8.59411C11.7423 8.59294 11.52 8.42117 11.4553 8.17294C11.4365 8.10235 10.9553 6.38 9.1541 5.89647C8.86822 5.82 8.58351 5.78235 8.30234 5.78235V5.78235Z" fill="black"/>
<path d="M12 19.3412C11.6894 19.3412 11.4365 19.0894 11.4365 18.7777V8.03179C11.4365 7.7212 11.6882 7.46826 12 7.46826C12.3106 7.46826 12.5635 7.72003 12.5635 8.03179V18.7788C12.5635 19.0894 12.3106 19.3412 12 19.3412V19.3412Z" fill="black"/>
</svg>
