<svg width="24" height="24" viewBox="0 0 24 24" fill="none" xmlns="http://www.w3.org/2000/svg">
<path fill-rule="evenodd" clip-rule="evenodd" d="M4.1625 15.5775H4.5225C5.0925 15.575 5.41 15.5325 6.655 14.815L9.6525 13.0775L9.95 13.67C8.915 14.285 7.205 15.3 7.2075 17.37C7.21 19.505 8.8575 21.0025 11.075 21C13.1875 20.9975 14.8125 19.4325 16.46 17.51L21 12.1825V11.8425L16.4525 6.525C14.8025 4.6025 13.2175 3 11.105 3C8.8875 3.005 7.1975 4.5475 7.2 6.6775C7.2 8.7525 8.91 9.7625 9.945 10.375L9.6525 10.9675L6.65 9.2375C5.405 8.5175 5.085 8.475 4.5175 8.475H4.1575L4.1625 15.5775Z" fill="black"/>
</svg>
