<svg width="24" height="24" viewBox="0 0 24 24" fill="none" xmlns="http://www.w3.org/2000/svg">
<path fill-rule="evenodd" clip-rule="evenodd" d="M20.3375 15.5775H19.9775C19.4075 15.575 19.09 15.5325 17.845 14.815L14.8475 13.0775L14.55 13.67C15.585 14.285 17.295 15.3 17.2925 17.37C17.29 19.505 15.6425 21.0025 13.425 21C11.3125 20.9975 9.6875 19.4325 8.04 17.51L3.5 12.1825V11.8425L8.0475 6.525C9.6975 4.6025 11.2825 3 13.395 3C15.6125 3.005 17.3025 4.5475 17.3 6.6775C17.3 8.7525 15.59 9.7625 14.555 10.375L14.8475 10.9675L17.85 9.2375C19.095 8.5175 19.415 8.475 19.9825 8.475H20.3425L20.3375 15.5775Z" fill="black"/>
</svg>
