<svg width="31" height="21" viewBox="0 0 31 21" fill="none" xmlns="http://www.w3.org/2000/svg">
<path fill-rule="evenodd" clip-rule="evenodd" d="M26.5165 2.3689C26.2603 2.24085 25.4917 1.72866 24.2107 1.21646C22.8017 0.704268 20.5599 0 17.6777 0C13.0661 0 8.77479 0.896341 5.63636 2.49695C1.92149 4.35366 0 7.17073 0 10.5C0 17.4146 6.46901 21 18.7665 21C21.7769 21 24.4029 20.2317 26.5806 18.6951L30.2955 20.6799H31V12.7409H30.2955L30.2314 12.8049V12.8689C30.2314 12.9329 29.5909 14.7256 27.9256 16.5183C26.3884 18.1829 23.5702 20.1677 18.9587 20.1677C15.8843 20.1677 13.3864 19.0152 11.7211 16.9024C10.4401 15.2378 9.67149 12.9329 9.67149 10.628C9.67149 4.41768 14.4752 1.08841 18.9587 1.08841C22.0331 1.08841 24.7872 2.04878 26.9649 3.90549C28.8223 5.44207 29.8471 7.23476 30.2314 8.45122V8.51524H31V0.384146H30.2955L26.5165 2.3689Z" fill="black"/>
</svg>
