<svg width="120" height="38" viewBox="0 0 120 38" fill="none" xmlns="http://www.w3.org/2000/svg">
<path d="M4.02076 11.6699L7.13529 8.73454C8.49985 7.44326 8.03736 6.76507 6.84155 6.76507V6.09948L11.2623 6.10158L11.2602 6.76717C10.2332 6.83016 9.73941 7.36977 8.21652 8.79543L6.4978 10.4101L10.4269 15.2246C11.004 15.9342 11.2415 16.0077 11.8852 16.1148L11.8831 16.7804L9.04568 16.7783L5.03116 11.7748L4.02076 12.7071L4.01868 14.0844C4.01868 15.0146 4.03535 15.3358 4.22909 15.5857C4.49575 15.93 4.89991 16.0938 5.61449 16.1148V16.7804L0.141664 16.7783V16.1127C0.856235 16.0707 1.27498 15.9426 1.52706 15.6886C1.7583 15.4555 1.84163 15.1175 1.84163 14.1873L1.8458 3.45812C1.8458 2.20883 1.78539 1.57264 1.46872 1.1737C1.1979 0.833561 0.735404 0.749575 0 0.665589V0H4.02493L4.02076 11.6699Z" fill="black"/>
<path d="M23.1663 14.4645C23.1642 15.4807 23.5538 15.7348 24.0683 15.7348C24.5975 15.7348 24.8704 15.4156 25.1017 14.96L25.6412 15.2435C25.2642 16.2471 24.51 17.0408 23.26 17.0408C22.0434 17.0408 21.3184 16.308 21.0788 15.3862C20.4184 16.0854 19.1726 17.0827 17.5435 17.0806C15.7601 17.0806 14.6268 16.0644 14.6268 14.5611C14.6268 12.4698 16.381 11.4473 20.9892 9.85156V9.5702C20.9913 7.46845 20.8517 6.5803 18.9413 6.5803C17.8789 6.5803 17.2747 6.93094 17.0976 8.12774C17.0185 8.65686 16.733 9.23636 16.031 9.23636C15.4435 9.23636 15.0372 8.87732 15.0372 8.25582C15.0372 7.12621 16.5268 5.80973 19.3413 5.81183C21.7559 5.81393 23.1684 6.80287 23.1684 9.23636L23.1663 14.4645ZM18.5747 15.8083C19.5413 15.8083 20.3267 15.1931 20.9892 14.5695V10.7082C17.7289 11.8483 16.931 12.8058 16.931 14.0341C16.931 15.2833 17.6497 15.8083 18.5747 15.8083Z" fill="black"/>
<path d="M30.9182 6.96664L30.9161 13.8346C30.9161 15.3799 31.2953 15.9342 32.3661 15.9363C33.1036 15.9363 33.5952 15.5542 33.9515 14.9348L34.5119 15.3022C34.0931 16.2093 33.2411 17.11 31.7265 17.11C29.5474 17.1079 28.7391 15.9867 28.7391 14.4435L28.7412 6.96874L27.4599 6.96664L27.462 6.36194C28.8703 5.85383 29.9099 4.56884 30.3953 3.34055H30.9224V6.11208L34.0077 6.11418V6.97084H30.9182V6.96664Z" fill="black"/>
<path d="M39.2889 10.3534C39.2577 10.662 39.2452 10.9854 39.2452 11.3276C39.2452 13.8661 40.4389 16.0623 42.9993 16.0644C44.4909 16.0644 45.5305 15.2603 46.12 14.517L46.6617 15.0188C46.0304 15.9069 44.7284 17.1121 42.418 17.1121C39.6681 17.11 36.814 15.1343 36.816 11.5796C36.816 8.13194 39.4639 5.81813 42.2993 5.81813C44.9201 5.82023 46.7159 7.51255 46.7159 9.93764C46.7159 10.2106 46.6534 10.3534 46.2596 10.3534H39.2889ZM39.4347 9.49462L43.6555 9.49672C44.3159 9.49672 44.4409 9.24686 44.4409 8.80593C44.4409 7.58394 43.7597 6.6118 42.3388 6.6118C40.9785 6.6118 39.866 7.59863 39.4347 9.49462Z" fill="black"/>
<path d="M56.6907 13.2698C56.874 14.6724 58.274 16.3668 59.9865 16.3668C61.3698 16.3689 62.1323 15.5962 62.1323 14.6829C62.1344 13.3496 61.024 12.8373 59.4802 12.2116C57.8282 11.5418 56.199 10.7397 56.199 8.83533C56.199 6.91625 57.8865 5.84543 59.6052 5.84543C61.0365 5.84543 61.6302 6.36404 61.9364 6.36404C62.1385 6.36404 62.3198 6.24226 62.3823 5.86643H63.0218L63.0823 9.0012L62.3573 8.9991C62.0739 7.8212 61.0031 6.616 59.7302 6.616C58.574 6.616 57.9115 7.2417 57.9115 8.11095C57.9115 9.0369 58.7927 9.54501 60.2469 10.1371C61.926 10.8174 63.8968 11.651 63.8968 13.8094C63.8968 16.0959 61.7635 17.1394 60.1281 17.1394C58.1803 17.1373 57.6344 16.4529 57.2136 16.4529C56.9615 16.4529 56.8157 16.6439 56.7178 16.982L56.0782 16.9799L55.974 13.2698H56.6907Z" fill="black"/>
<path d="M72.6133 22.5292L66.8468 22.5271V21.8594C67.5613 21.8196 67.9801 21.6915 68.2322 21.4374C68.4634 21.2044 68.5467 20.8684 68.5488 19.9362L68.553 9.37073C68.553 8.39649 68.5092 7.46635 68.1967 7.1493C67.9447 6.89524 67.6301 6.79026 66.7697 6.78816L66.7718 6.12257L70.6071 6.12467L70.605 7.7225C71.3092 6.64328 72.4258 5.82862 74.2091 5.82862C76.8966 5.83072 79.3611 7.7645 79.357 11.3192C79.3549 14.7668 76.8903 17.1226 74.0571 17.1226C72.4925 17.1205 71.3675 16.5389 70.7279 15.5962L70.7259 19.8312C70.7259 20.7613 70.7404 21.0826 70.9363 21.3324C71.2029 21.6747 71.7342 21.8196 72.6133 21.8615V22.5292ZM70.7279 12.9338C70.7279 15.2204 72.1675 16.1631 73.555 16.1631C75.2133 16.1652 76.9278 14.9096 76.9299 11.3864C76.932 8.84582 76.0987 6.79656 73.7258 6.79446C71.9008 6.79446 70.73 8.23272 70.73 10.3177L70.7279 12.9338Z" fill="black"/>
<path d="M91.0672 14.4918C91.0672 15.508 91.4547 15.7621 91.9713 15.7621C92.5005 15.7621 92.7734 15.4429 93.0046 14.9894L93.5421 15.2708C93.1671 16.2744 92.4109 17.0681 91.163 17.0681C89.9443 17.0681 89.2193 16.3353 88.9797 15.4135C88.3193 16.1127 87.0735 17.11 85.4464 17.1079C83.661 17.1079 82.5277 16.0917 82.5277 14.5884C82.5298 12.4992 84.2819 11.4746 88.8922 9.87885V9.5975C88.8943 7.49785 88.7526 6.6076 86.8422 6.6076C85.7798 6.6076 85.1735 6.95824 84.9985 8.15294C84.9214 8.68205 84.634 9.26156 83.934 9.26156C83.3465 9.26156 82.9381 8.90252 82.9381 8.28102C82.9381 7.15141 84.4298 5.83703 87.2422 5.83703C89.6568 5.83703 91.0713 6.82806 91.0693 9.25946L91.0672 14.4918ZM86.4756 15.8335C87.4422 15.8335 88.2297 15.2183 88.8901 14.5947L88.8922 10.7334C85.6318 11.8756 84.8339 12.831 84.8319 14.0593C84.8319 15.3085 85.5527 15.8335 86.4756 15.8335Z" fill="black"/>
<path d="M104.086 15.2959C103.413 16.2261 102.298 17.1352 100.411 17.1352C97.7233 17.1331 95.2484 15.1238 95.2484 11.6468C95.2484 8.17813 97.5587 5.84122 100.5 5.84122C102.177 5.84332 103.292 6.47742 103.879 7.36557L103.882 3.50012C103.882 2.25082 103.821 1.61463 103.502 1.2136C103.232 0.873455 102.769 0.789469 102.034 0.705483V0.0398941H106.061L106.054 12.938C106.054 14.6535 106.134 15.3757 106.579 15.7726C106.892 16.0518 107.377 16.1106 107.923 16.1526L107.921 16.8182H104.4C104.273 16.4801 104.148 16.0371 104.086 15.2959ZM103.877 9.67308C103.879 7.86319 102.515 6.80496 101.002 6.80496C99.3441 6.80286 97.6796 8.01016 97.6775 11.6258C97.6754 14.1642 98.4587 16.1946 100.957 16.1967C102.74 16.1967 103.875 14.7374 103.875 12.7995V9.67308H103.877Z" fill="black"/>
<path d="M112.575 10.3807C112.542 10.6914 112.531 11.0127 112.531 11.357C112.531 13.8955 113.725 16.0917 116.288 16.0917C117.777 16.0917 118.817 15.2896 119.406 14.5464L119.948 15.0482C119.317 15.9384 118.015 17.1436 115.706 17.1415C112.954 17.1394 110.1 15.1637 110.102 11.609C110.104 8.15923 112.75 5.84752 115.585 5.84752C118.206 5.84962 120.002 7.54194 120 9.96703C120 10.24 119.937 10.3828 119.544 10.3828L112.575 10.3807ZM112.721 9.524L116.94 9.5261C117.6 9.5261 117.727 9.27625 117.727 8.83532C117.727 7.61332 117.046 6.64329 115.625 6.64119C114.265 6.64119 113.152 7.62592 112.721 9.524Z" fill="black"/>
<path d="M25.5121 29.773H27.4704H27.4933L31.6161 35.0452L31.6286 35.0578L31.6307 31.9168C31.6307 31.8937 31.6307 31.8349 31.6286 31.8118C31.6224 30.594 31.4161 30.4428 30.7828 30.3252C30.7245 30.3147 30.6557 30.0523 30.5766 30.0439V29.8927L30.6078 29.7751L33.2328 29.7772V30.1678C33.1953 30.172 33.1599 30.3042 33.1265 30.3084C32.4119 30.3798 32.2932 30.5079 32.2911 32.2317L32.289 37.0378H31.8495L31.6578 37.0189L27.2975 31.4611L27.2829 31.438L27.2808 34.7618V34.8101C27.2829 36.1224 27.4954 36.263 28.1995 36.347C28.2412 36.3512 28.2849 36.4877 28.3349 36.4898V36.8845L25.6787 36.8824V36.4877C25.7183 36.4856 25.7537 36.3512 25.785 36.347C26.5016 36.2777 26.6204 36.1518 26.6204 34.4259L26.6225 30.72C26.6204 30.7179 26.6162 30.7053 26.6141 30.7032C26.3391 30.468 26.085 30.3798 25.6517 30.3105C25.61 30.3042 25.5642 30.1678 25.5142 30.1615V29.773H25.5121Z" fill="black"/>
<path d="M41.7201 36.8908L35.5202 36.8887V36.3659C36.4244 36.3176 36.5556 36.2505 36.5556 35.0788L36.5577 31.5871C36.5577 30.4134 36.4264 30.3483 35.5223 30.3L35.5244 29.7772L41.3035 29.7793L41.3285 31.5934H40.7993C40.5889 30.5415 40.3368 30.3588 39.1577 30.3588L37.8598 30.3567L37.8577 32.9477L38.241 32.9498C39.3951 32.9498 39.4451 32.7566 39.5576 31.837H40.0868L40.0847 34.577H39.5576C39.4431 33.607 39.2493 33.5314 38.2243 33.5314L37.8598 33.5293V35.1061C37.8598 35.9964 38.0389 36.3092 39.1764 36.3092H39.4264C40.8118 36.3113 41.0972 36.1791 41.3097 34.7366H41.8389L41.7201 36.8908Z" fill="black"/>
<path d="M51.3574 30.3063L51.3595 29.7835H53.8928V30.3063C53.2907 30.3735 53.1011 30.6801 52.7824 31.7551L51.1991 37.1134L50.422 37.1113L48.8283 31.9777L47.1762 37.1113H46.42L44.5659 31.1462C44.3263 30.3819 44.093 30.3399 43.5492 30.3021L43.5513 29.7793L46.77 29.7814V30.3042C45.9054 30.3504 45.7075 30.4596 45.9534 31.2974L47.0867 35.2132L48.8262 29.7814H49.4012L51.1033 35.2027L52.172 31.4822C52.4074 30.6528 52.272 30.3357 51.3574 30.3063Z" fill="black"/>
<path d="M64.8343 36.8992H61.4073V36.3743C62.3385 36.3281 62.4697 36.2609 62.4697 35.5744V34.239L60.5802 30.762C60.4073 30.4512 60.2281 30.3357 59.6448 30.3084V29.7856L62.851 29.7877V30.3105C61.9843 30.3567 61.8364 30.5499 62.2239 31.2806L63.3926 33.4684L64.5551 31.5031C65.0343 30.6906 64.9551 30.3399 64.0655 30.3084V29.7856L66.6842 29.7877V30.3105C65.9884 30.3777 65.7988 30.6423 65.1405 31.7782L63.7697 34.1445V35.5765C63.7697 36.263 63.901 36.3302 64.8343 36.3785V36.8992Z" fill="black"/>
<path d="M76.1216 33.3592C76.1216 35.4946 74.4737 37.0483 72.2425 37.0483C69.9092 37.0462 68.3655 35.4043 68.3676 33.3571C68.3696 31.3457 70.1092 29.6681 72.2446 29.6681C74.532 29.6681 76.1216 31.3016 76.1216 33.3592ZM69.855 33.3466C69.855 35.0516 70.5404 36.4751 72.2425 36.4751C74.0112 36.4751 74.632 34.955 74.632 33.3487C74.6341 31.6627 73.8195 30.2392 72.2446 30.2392C70.6238 30.2371 69.855 31.6606 69.855 33.3466Z" fill="black"/>
<path d="M78.3799 36.9055V36.3827C79.284 36.3365 79.3882 36.2693 79.3882 35.0956L79.3903 31.606C79.3903 30.4323 79.259 30.3672 78.3549 30.3189V29.7961H81.6819C83.4527 29.7982 84.3923 30.4071 84.3923 31.5913C84.3923 32.5236 83.734 33.292 82.5777 33.5188L84.4506 35.841C84.761 36.2295 84.9215 36.3302 85.5256 36.3869V36.9097L83.6902 36.9076L81.6361 34.1781C81.3673 33.8212 81.2319 33.7456 80.8986 33.7456H80.6882V35.0956C80.6861 36.2693 80.7924 36.3344 81.6944 36.3827V36.9055H78.3799ZM80.6882 30.3756L80.6861 33.1661H81.1298C82.3986 33.1661 82.9777 32.5887 82.9777 31.7677C82.9798 30.7725 82.3486 30.3735 81.4257 30.3735H80.6882V30.3756Z" fill="black"/>
<path d="M89.763 33.7435C90.5067 32.996 91.3151 32.1351 91.9109 31.3415C92.3109 30.8082 92.4213 30.3525 91.6026 30.3252L91.6046 29.8003L94.2192 29.8024V30.3252C93.4275 30.3903 93.1921 30.6738 92.3588 31.6921C92.0609 32.0595 91.738 32.4312 91.3672 32.8343L93.7775 35.8284C94.1817 36.3302 94.4942 36.3722 94.8983 36.3911V36.9139H91.5776V36.389C92.4692 36.3701 92.515 36.2672 91.9588 35.5387L90.563 33.6931C90.3172 33.9387 90.0547 34.2012 89.7651 34.4804V35.5849C89.7651 36.2756 89.8693 36.3428 90.6401 36.3911V36.9139L87.4568 36.9118V36.3869C88.361 36.3407 88.4651 36.2735 88.4651 35.0998L88.4672 31.6102C88.4672 30.4365 88.363 30.3693 87.4589 30.3231L87.461 29.7982L90.6401 29.8003V30.3231C89.8693 30.3693 89.7755 30.4659 89.7651 31.2218L89.763 33.7435Z" fill="black"/>
</svg>
