<svg width="121" height="38" viewBox="0 0 121 38" fill="none" xmlns="http://www.w3.org/2000/svg">
<path d="M4.80397 11.6699L7.9185 8.73454C9.28306 7.44326 8.82056 6.76507 7.62475 6.76507V6.09948L12.0455 6.10158L12.0434 6.76717C11.0164 6.83016 10.5226 7.36977 8.99973 8.79543L7.28101 10.4101L11.2101 15.2246C11.7872 15.9342 12.0247 16.0077 12.6684 16.1148L12.6663 16.7804L9.82888 16.7783L5.81437 11.7748L4.80397 12.7071L4.80188 14.0844C4.80188 15.0146 4.81855 15.3358 5.0123 15.5857C5.27896 15.93 5.68312 16.0938 6.39769 16.1148V16.7804L0.924867 16.7783V16.1127C1.63944 16.0707 2.05818 15.9426 2.31026 15.6886C2.54151 15.4555 2.62484 15.1175 2.62484 14.1873L2.629 3.45812C2.629 2.20883 2.56859 1.57264 2.25193 1.1737C1.9811 0.833561 1.51861 0.749575 0.783203 0.665589V0H4.80813L4.80397 11.6699Z" fill="white"/>
<path d="M23.9495 14.4645C23.9474 15.4807 24.337 15.7348 24.8515 15.7348C25.3807 15.7348 25.6536 15.4156 25.8849 14.96L26.4244 15.2435C26.0474 16.2471 25.2932 17.0408 24.0432 17.0408C22.8266 17.0408 22.1016 16.308 21.862 15.3862C21.2016 16.0854 19.9558 17.0827 18.3267 17.0806C16.5434 17.0806 15.41 16.0644 15.41 14.5611C15.41 12.4698 17.1642 11.4473 21.7724 9.85156V9.5702C21.7745 7.46845 21.6349 6.5803 19.7246 6.5803C18.6621 6.5803 18.0579 6.93094 17.8808 8.12774C17.8017 8.65686 17.5163 9.23636 16.8142 9.23636C16.2267 9.23636 15.8205 8.87732 15.8205 8.25582C15.8205 7.12621 17.31 5.80973 20.1245 5.81183C22.5391 5.81393 23.9516 6.80287 23.9516 9.23636L23.9495 14.4645ZM19.3579 15.8083C20.3245 15.8083 21.1099 15.1931 21.7724 14.5695V10.7082C18.5121 11.8483 17.7142 12.8058 17.7142 14.0341C17.7142 15.2833 18.4329 15.8083 19.3579 15.8083Z" fill="white"/>
<path d="M31.7014 6.96664L31.6993 13.8346C31.6993 15.3799 32.0785 15.9342 33.1493 15.9363C33.8868 15.9363 34.3784 15.5542 34.7347 14.9348L35.2951 15.3022C34.8763 16.2093 34.0243 17.11 32.5097 17.11C30.3306 17.1079 29.5223 15.9867 29.5223 14.4435L29.5244 6.96874L28.2431 6.96664L28.2452 6.36194C29.6535 5.85383 30.6931 4.56884 31.1785 3.34055H31.7056V6.11208L34.7909 6.11418V6.97084H31.7014V6.96664Z" fill="white"/>
<path d="M40.0721 10.3534C40.0409 10.662 40.0284 10.9854 40.0284 11.3276C40.0284 13.8661 41.2221 16.0623 43.7825 16.0644C45.2741 16.0644 46.3137 15.2603 46.9032 14.517L47.4449 15.0188C46.8137 15.9069 45.5116 17.1121 43.2012 17.1121C40.4513 17.11 37.5972 15.1343 37.5992 11.5796C37.5992 8.13194 40.2471 5.81813 43.0825 5.81813C45.7033 5.82023 47.4991 7.51255 47.4991 9.93764C47.4991 10.2106 47.4366 10.3534 47.0428 10.3534H40.0721ZM40.2179 9.49462L44.4387 9.49672C45.0991 9.49672 45.2241 9.24686 45.2241 8.80593C45.2241 7.58394 44.5429 6.6118 43.1221 6.6118C41.7617 6.6118 40.6492 7.59863 40.2179 9.49462Z" fill="white"/>
<path d="M57.4739 13.2698C57.6572 14.6723 59.0572 16.3668 60.7697 16.3668C62.153 16.3689 62.9155 15.5962 62.9155 14.6828C62.9176 13.3496 61.8072 12.8372 60.2634 12.2115C58.6114 11.5418 56.9822 10.7397 56.9822 8.83531C56.9822 6.91623 58.6697 5.84541 60.3884 5.84541C61.8197 5.84541 62.4134 6.36403 62.7196 6.36403C62.9217 6.36403 63.103 6.24225 63.1655 5.86641H63.805L63.8655 9.00118L63.1405 8.99909C62.8571 7.82118 61.7863 6.61598 60.5134 6.61598C59.3572 6.61598 58.6947 7.24168 58.6947 8.11093C58.6947 9.03688 59.576 9.54499 61.0301 10.1371C62.7092 10.8174 64.68 11.6509 64.68 13.8094C64.68 16.0959 62.5467 17.1394 60.9113 17.1394C58.9635 17.1373 58.4176 16.4528 57.9968 16.4528C57.7447 16.4528 57.5989 16.6439 57.501 16.9819L56.8614 16.9799L56.7572 13.2698H57.4739Z" fill="white"/>
<path d="M73.3965 22.5292L67.63 22.5271V21.8595C68.3445 21.8196 68.7633 21.6915 69.0154 21.4374C69.2466 21.2044 69.3299 20.8684 69.332 19.9362L69.3362 9.37074C69.3362 8.3965 69.2924 7.46635 68.9799 7.14931C68.7279 6.89525 68.4133 6.79027 67.5529 6.78817L67.555 6.12258L71.3903 6.12468L71.3882 7.72251C72.0924 6.64329 73.209 5.82863 74.9923 5.82863C77.6798 5.83073 80.1443 7.76451 80.1402 11.3192C80.1381 14.7668 77.6735 17.1226 74.8403 17.1226C73.2757 17.1205 72.1507 16.5389 71.5111 15.5962L71.5091 19.8312C71.5091 20.7613 71.5236 21.0826 71.7195 21.3324C71.9861 21.6747 72.5174 21.8196 73.3965 21.8616V22.5292ZM71.5111 12.9338C71.5111 15.2204 72.9507 16.1631 74.3382 16.1631C75.9965 16.1652 77.711 14.9096 77.7131 11.3864C77.7152 8.84582 76.8819 6.79657 74.509 6.79447C72.684 6.79447 71.5132 8.23273 71.5132 10.3177L71.5111 12.9338Z" fill="white"/>
<path d="M91.8504 14.4918C91.8504 15.508 92.2379 15.7621 92.7545 15.7621C93.2837 15.7621 93.5566 15.4429 93.7878 14.9894L94.3253 15.2707C93.9503 16.2744 93.1941 17.068 91.9462 17.068C90.7275 17.068 90.0025 16.3353 89.7629 15.4135C89.1025 16.1127 87.8567 17.11 86.2296 17.1079C84.4443 17.1079 83.3109 16.0917 83.3109 14.5884C83.313 12.4992 85.0651 11.4746 89.6754 9.87884V9.59749C89.6775 7.49784 89.5358 6.60759 87.6254 6.60759C86.563 6.60759 85.9567 6.95823 85.7817 8.15293C85.7046 8.68205 85.4172 9.26155 84.7172 9.26155C84.1297 9.26155 83.7213 8.90251 83.7213 8.28101C83.7213 7.1514 85.213 5.83702 88.0254 5.83702C90.44 5.83702 91.8545 6.82805 91.8525 9.25945L91.8504 14.4918ZM87.2588 15.8335C88.2254 15.8335 89.0129 15.2183 89.6733 14.5947L89.6754 10.7334C86.4151 11.8756 85.6172 12.831 85.6151 14.0592C85.6151 15.3085 86.3359 15.8335 87.2588 15.8335Z" fill="white"/>
<path d="M104.869 15.2959C104.196 16.2261 103.081 17.1352 101.194 17.1352C98.5065 17.1331 96.0316 15.1238 96.0316 11.6467C96.0316 8.17813 98.3419 5.84122 101.284 5.84122C102.961 5.84332 104.075 6.47741 104.663 7.36556L104.665 3.50011C104.665 2.25082 104.604 1.61462 104.286 1.21359C104.015 0.873447 103.552 0.789461 102.817 0.705475V0.0398865H106.844L106.838 12.938C106.838 14.6534 106.917 15.3757 107.363 15.7726C107.675 16.0518 108.161 16.1106 108.706 16.1526L108.704 16.8182H105.183C105.056 16.4801 104.931 16.0371 104.869 15.2959ZM104.661 9.67308C104.663 7.86318 103.298 6.80496 101.786 6.80496C100.127 6.80286 98.4628 8.01016 98.4607 11.6258C98.4586 14.1642 99.2419 16.1946 101.74 16.1967C103.523 16.1967 104.658 14.7374 104.658 12.7995V9.67308H104.661Z" fill="white"/>
<path d="M113.358 10.3807C113.325 10.6914 113.315 11.0127 113.315 11.357C113.315 13.8955 114.508 16.0917 117.071 16.0917C118.56 16.0917 119.6 15.2896 120.189 14.5464L120.731 15.0482C120.1 15.9384 118.798 17.1436 116.49 17.1415C113.738 17.1394 110.883 15.1637 110.885 11.609C110.888 8.15923 113.533 5.84752 116.369 5.84752C118.989 5.84962 120.785 7.54194 120.783 9.96703C120.783 10.24 120.721 10.3828 120.327 10.3828L113.358 10.3807ZM113.504 9.52401L117.723 9.5261C118.383 9.5261 118.51 9.27625 118.51 8.83532C118.51 7.61332 117.829 6.64329 116.408 6.64119C115.048 6.64119 113.935 7.62592 113.504 9.52401Z" fill="white"/>
<path d="M26.2953 29.773H28.2536H28.2765L32.3993 35.0452L32.4118 35.0578L32.4139 31.9168C32.4139 31.8937 32.4139 31.8349 32.4118 31.8118C32.4056 30.594 32.1993 30.4428 31.566 30.3252C31.5077 30.3147 31.4389 30.0523 31.3598 30.0439V29.8927L31.391 29.7751L34.016 29.7772V30.1677C33.9785 30.1719 33.9431 30.3042 33.9097 30.3084C33.1952 30.3798 33.0764 30.5079 33.0743 32.2317L33.0722 37.0378H32.6327L32.441 37.0189L28.0807 31.4611L28.0661 31.438L28.064 34.7618V34.8101C28.0661 36.1224 28.2786 36.263 28.9827 36.347C29.0244 36.3512 29.0681 36.4877 29.1181 36.4898V36.8845L26.4619 36.8824V36.4877C26.5015 36.4856 26.5369 36.3512 26.5682 36.347C27.2848 36.2777 27.4036 36.1517 27.4036 34.4258L27.4057 30.72C27.4036 30.7179 27.3994 30.7053 27.3973 30.7032C27.1223 30.468 26.8682 30.3798 26.4349 30.3105C26.3932 30.3042 26.3474 30.1677 26.2974 30.1614V29.773H26.2953Z" fill="white"/>
<path d="M42.5033 36.8908L36.3034 36.8887V36.3659C37.2076 36.3176 37.3388 36.2504 37.3388 35.0788L37.3409 31.5871C37.3409 30.4134 37.2096 30.3483 36.3055 30.3L36.3076 29.7772L42.0866 29.7793L42.1117 31.5934H41.5825C41.3721 30.5415 41.12 30.3588 39.9409 30.3588L38.643 30.3567L38.6409 32.9477L39.0242 32.9498C40.1783 32.9498 40.2283 32.7566 40.3408 31.837H40.87L40.8679 34.577H40.3408C40.2263 33.607 40.0325 33.5314 39.0075 33.5314L38.643 33.5293V35.1061C38.643 35.9964 38.8221 36.3092 39.9596 36.3092H40.2096C41.595 36.3113 41.8804 36.1791 42.0929 34.7366H42.6221L42.5033 36.8908Z" fill="white"/>
<path d="M52.1406 30.3063L52.1427 29.7835H54.676V30.3063C54.0739 30.3735 53.8843 30.6801 53.5656 31.7551L51.9823 37.1134L51.2052 37.1113L49.6115 31.9777L47.9595 37.1113H47.2032L45.3491 31.1462C45.1095 30.3819 44.8762 30.3399 44.3324 30.3021L44.3345 29.7793L47.5532 29.7814V30.3042C46.6886 30.3504 46.4907 30.4596 46.7366 31.2974L47.8699 35.2132L49.6094 29.7814H50.1844L51.8865 35.2027L52.9552 31.4821C53.1906 30.6528 53.0552 30.3357 52.1406 30.3063Z" fill="white"/>
<path d="M65.6175 36.8992H62.1905V36.3743C63.1217 36.3281 63.2529 36.2609 63.2529 35.5744V34.239L61.3634 30.762C61.1905 30.4512 61.0113 30.3357 60.428 30.3084V29.7856L63.6342 29.7877V30.3105C62.7675 30.3567 62.6196 30.5499 63.0071 31.2806L64.1758 33.4684L65.3383 31.5031C65.8175 30.6906 65.7383 30.3399 64.8487 30.3084V29.7856L67.4674 29.7877V30.3105C66.7716 30.3777 66.582 30.6423 65.9237 31.7782L64.5529 34.1445V35.5765C64.5529 36.263 64.6842 36.3302 65.6175 36.3785V36.8992Z" fill="white"/>
<path d="M76.9048 33.3592C76.9048 35.4946 75.2569 37.0483 73.0257 37.0483C70.6924 37.0462 69.1487 35.4043 69.1508 33.3571C69.1528 31.3457 70.8924 29.668 73.0278 29.668C75.3152 29.668 76.9048 31.3016 76.9048 33.3592ZM70.6382 33.3466C70.6382 35.0515 71.3236 36.4751 73.0257 36.4751C74.7944 36.4751 75.4152 34.955 75.4152 33.3487C75.4173 31.6627 74.6027 30.2392 73.0278 30.2392C71.407 30.2371 70.6382 31.6606 70.6382 33.3466Z" fill="white"/>
<path d="M79.1631 36.9055V36.3827C80.0672 36.3365 80.1714 36.2693 80.1714 35.0956L80.1735 31.606C80.1735 30.4323 80.0422 30.3672 79.1381 30.3189V29.7961H82.4651C84.2359 29.7982 85.1755 30.4071 85.1755 31.5913C85.1755 32.5236 84.5172 33.292 83.3609 33.5188L85.2338 35.841C85.5442 36.2294 85.7047 36.3302 86.3088 36.3869V36.9097L84.4734 36.9076L82.4193 34.1781C82.1505 33.8211 82.0151 33.7456 81.6818 33.7456H81.4714V35.0956C81.4693 36.2693 81.5756 36.3344 82.4776 36.3827V36.9055H79.1631ZM81.4714 30.3756L81.4693 33.1661H81.913C83.1818 33.1661 83.7609 32.5886 83.7609 31.7677C83.763 30.7724 83.1318 30.3735 82.2089 30.3735H81.4714V30.3756Z" fill="white"/>
<path d="M90.5462 33.7435C91.29 32.996 92.0983 32.1351 92.6941 31.3415C93.0941 30.8082 93.2045 30.3525 92.3858 30.3252L92.3878 29.8003L95.0024 29.8024V30.3252C94.2107 30.3903 93.9753 30.6738 93.142 31.6921C92.8441 32.0595 92.5212 32.4312 92.1504 32.8343L94.5607 35.8284C94.9649 36.3302 95.2774 36.3722 95.6815 36.3911V36.9139H92.3608V36.389C93.2524 36.3701 93.2982 36.2672 92.742 35.5387L91.3462 33.6931C91.1004 33.9387 90.8379 34.2012 90.5483 34.4804V35.5849C90.5483 36.2756 90.6525 36.3428 91.4233 36.3911V36.9139L88.24 36.9118V36.3869C89.1442 36.3407 89.2483 36.2735 89.2483 35.0998L89.2504 31.6102C89.2504 30.4365 89.1462 30.3693 88.2421 30.3231L88.2442 29.7982L91.4233 29.8003V30.3231C90.6525 30.3693 90.5587 30.4659 90.5483 31.2218L90.5462 33.7435Z" fill="white"/>
</svg>
