<svg width="24" height="24" viewBox="0 0 24 24" fill="none" xmlns="http://www.w3.org/2000/svg">
<path fill-rule="evenodd" clip-rule="evenodd" d="M11.499 4.01208C9.583 4.01208 8.02429 5.57079 8.02429 7.48779C8.02429 9.40379 9.583 10.9625 11.499 10.9625C13.416 10.9625 14.9757 9.40379 14.9757 7.48779C14.9757 5.57079 13.416 4.01208 11.499 4.01208ZM11.499 11.9747C9.02536 11.9747 7.01221 9.96154 7.01221 7.48785C7.01221 5.01316 9.02536 3 11.499 3C13.9737 3 15.9879 5.01316 15.9879 7.48785C15.9879 9.96154 13.9737 11.9747 11.499 11.9747Z" fill="#101820"/>
<path fill-rule="evenodd" clip-rule="evenodd" d="M18.4939 21.5902C18.2146 21.5902 17.9879 21.3635 17.9879 21.0841C17.9879 17.1793 15.0769 14.0021 11.499 14.0021C7.92206 14.0021 5.01215 17.1793 5.01215 21.0841C5.01215 21.3635 4.78543 21.5902 4.50607 21.5902C4.22571 21.5902 4 21.3635 4 21.0841C4 16.6216 7.36437 12.99 11.499 12.99C15.6356 12.99 19 16.6216 19 21.0841C19 21.3635 18.7733 21.5902 18.4939 21.5902Z" fill="black"/>
</svg>
