<svg width="24" height="24" viewBox="0 0 24 24" fill="none" xmlns="http://www.w3.org/2000/svg">
<path fill-rule="evenodd" clip-rule="evenodd" d="M4.49965 21.9998H20.4996C20.6356 21.9998 20.7666 21.9438 20.8606 21.8458C20.9556 21.7458 21.0046 21.6128 20.9986 21.4768L20.3756 8.06383C20.3636 7.79783 20.1436 7.58783 19.8766 7.58783H5.12265C4.85465 7.58783 4.63465 7.79783 4.62365 8.06383L4.00065 21.4768C3.99365 21.6128 4.04365 21.7458 4.13765 21.8458C4.23165 21.9438 4.36265 21.9998 4.49965 21.9998ZM19.9756 20.9998H5.02264L5.59964 8.58783H19.3986L19.9756 20.9998Z" fill="#101820"/>
<path fill-rule="evenodd" clip-rule="evenodd" d="M9.07045 10.823H9.06645C8.79045 10.821 8.56845 10.595 8.57045 10.319C8.57745 9.468 8.74345 2 12.4984 2C16.2544 2 16.4214 9.468 16.4274 10.319C16.4294 10.595 16.2084 10.821 15.9314 10.823H15.9274C15.6534 10.823 15.4294 10.601 15.4274 10.327C15.4114 8.289 14.8514 3 12.4984 3C10.1424 3 9.58645 8.289 9.57045 10.327C9.56845 10.601 9.34445 10.823 9.07045 10.823Z" fill="black"/>
</svg>
