<svg width="25" height="24" viewBox="0 0 25 24" fill="none" xmlns="http://www.w3.org/2000/svg">
<path fill-rule="evenodd" clip-rule="evenodd" d="M13 4C9.62782 4 6 6.81396 6 10.6435C6 13.547 7.72587 16.1285 9.36823 17.9385C10.1977 18.8527 11.0256 19.5917 11.6458 20.1022C11.9563 20.3578 12.2157 20.5569 12.3987 20.6929C12.4902 20.7609 12.5626 20.8132 12.6128 20.849C12.6379 20.8668 12.6575 20.8806 12.6711 20.89L12.687 20.9011L12.6915 20.9042L12.6929 20.9051C12.6929 20.9051 12.6937 20.9057 13.0004 20.469L12.6929 20.9051C12.8774 21.0313 13.1226 21.0318 13.3071 20.9057L13.0004 20.469C13.3071 20.9057 13.3071 20.9057 13.3071 20.9057L13.3093 20.9042L13.3138 20.9011L13.3297 20.89C13.3433 20.8805 13.3628 20.8668 13.3879 20.849C13.4381 20.8132 13.5106 20.7609 13.6021 20.6929C13.785 20.5569 14.0444 20.3577 14.3549 20.1022C14.975 19.5917 15.8028 18.8526 16.6322 17.9385C18.2743 16.1285 20 13.547 20 10.6435C20 6.79972 16.6866 4 13 4ZM13.0004 19.8097C13.1676 19.6843 13.3955 19.5082 13.665 19.2863C14.2563 18.7995 15.0438 18.0961 15.8298 17.2299C17.4182 15.4791 18.9231 13.1478 18.9231 10.6435C18.9231 7.24393 16 5.06254 13 5.06254C10 5.06254 7.07692 7.43463 7.07692 10.6435C7.07692 13.1478 8.58201 15.4791 10.1706 17.2298C10.9566 18.0961 11.7442 18.7995 12.3357 19.2863C12.6051 19.5081 12.833 19.6843 13.0004 19.8097Z" fill="black"/>
<path fill-rule="evenodd" clip-rule="evenodd" d="M13 8.33042C11.4217 8.33042 10.1429 9.6093 10.1429 11.1876C10.1429 12.7658 11.4217 14.0447 13 14.0447C14.5775 14.0447 15.8571 12.7657 15.8571 11.1876C15.8571 9.6094 14.5775 8.33042 13 8.33042ZM13 15.1876C15.2084 15.1876 17 13.3971 17 11.1876C17 8.97802 15.2084 7.18756 13 7.18756C10.7906 7.18756 9 8.97812 9 11.1876C9 13.397 10.7906 15.1876 13 15.1876Z" fill="black"/>
</svg>
