<svg width="24" height="24" viewBox="0 0 24 24" fill="none" xmlns="http://www.w3.org/2000/svg">
<path fill-rule="evenodd" clip-rule="evenodd" d="M10.1864 6.02679C6.78981 6.02679 4.02673 8.78987 4.02673 12.1875C4.02673 15.5851 6.78981 18.3482 10.1864 18.3482C13.5841 18.3482 16.3482 15.5851 16.3482 12.1875C16.3482 8.78987 13.5841 6.02679 10.1864 6.02679ZM10.1865 19.375C6.22411 19.375 3 16.1499 3 12.1875C3 8.22513 6.22411 5 10.1865 5C14.1499 5 17.375 8.22513 17.375 12.1875C17.375 16.1499 14.1499 19.375 10.1865 19.375Z" fill="#101820"/>
<path fill-rule="evenodd" clip-rule="evenodd" d="M20.4553 19.9195C20.3413 19.9195 20.2263 19.8846 20.1288 19.8106L15.7711 16.5424C15.5309 16.3617 15.4826 16.0208 15.6633 15.7805C15.844 15.5392 16.1849 15.491 16.4252 15.6717L20.7818 18.9399C21.0231 19.1206 21.0714 19.4615 20.8907 19.7018C20.7839 19.8445 20.6206 19.9195 20.4553 19.9195Z" fill="black"/>
</svg>
