<svg width="24" height="24" viewBox="0 0 24 24" fill="none" xmlns="http://www.w3.org/2000/svg">
<path fill-rule="evenodd" clip-rule="evenodd" d="M5.89203 12.3335C5.89203 11.151 6.85155 10.1603 8.06694 10.1603C8.19488 10.1603 8.38678 10.2242 8.61067 10.3201C9.02646 10.5119 9.47423 10.8954 9.95399 11.4067C10.2418 11.6943 10.5297 12.0139 10.7856 12.3654C10.5297 12.685 10.2418 13.0046 9.95399 13.2922C9.47423 13.8035 8.99447 14.1551 8.61067 14.3788C8.38678 14.4747 8.22686 14.5386 8.06694 14.5386C6.85155 14.4747 5.89203 13.5159 5.89203 12.3335ZM5.18839 12.3335C5.18839 13.9314 6.46774 15.2097 8.06694 15.2097C9.66614 15.2097 11.6811 12.3335 11.6811 12.3335C11.6811 12.3335 9.66614 9.45725 8.06694 9.45725C6.46774 9.42529 5.18839 10.7356 5.18839 12.3335Z" fill="black"/>
<path fill-rule="evenodd" clip-rule="evenodd" d="M10.7537 10.6081C10.2419 10.1288 9.89013 9.64938 9.66624 9.26589C9.57029 9.04218 9.50632 8.88239 9.50632 8.7226C9.50632 7.54015 10.4658 6.54945 11.6812 6.54945C12.8646 6.54945 13.8561 7.50819 13.8561 8.7226C13.8561 8.85043 13.7922 9.04218 13.6962 9.26589C13.5043 9.68134 13.1205 10.1288 12.6088 10.6081C12.3209 10.8957 12.0011 11.1834 11.6492 11.439C11.3614 11.1514 11.0415 10.8957 10.7537 10.6081ZM8.80267 8.7226C8.80267 10.3205 11.6812 12.3339 11.6812 12.3339C11.6812 12.3339 14.5598 10.3205 14.5598 8.7226C14.5598 7.1247 13.2804 5.84637 11.6812 5.84637C10.082 5.81442 8.80267 7.1247 8.80267 8.7226Z" fill="black"/>
<path fill-rule="evenodd" clip-rule="evenodd" d="M9.50632 15.9454C9.50632 15.8176 9.57029 15.6258 9.66624 15.4021C9.85814 14.9867 10.2419 14.5393 10.7537 14.0599C11.0415 13.7723 11.3614 13.4847 11.7132 13.229C12.0331 13.4847 12.3529 13.7723 12.6407 14.0599C13.1525 14.5393 13.5043 15.0186 13.7282 15.4021C13.8242 15.6258 13.8881 15.7856 13.8881 15.9454C13.8881 17.1279 12.9286 18.1186 11.7132 18.1186C10.4978 18.0866 9.50632 17.1279 9.50632 15.9454ZM8.80267 15.9454C8.80267 17.5433 10.082 18.8216 11.6812 18.8216C13.2804 18.8216 14.5598 17.5433 14.5598 15.9454C14.5598 14.3475 11.6812 12.3342 11.6812 12.3342C11.6812 12.3342 8.80267 14.3475 8.80267 15.9454Z" fill="black"/>
<path fill-rule="evenodd" clip-rule="evenodd" d="M14.7515 14.3471C14.3357 14.1554 13.8879 13.7719 13.4081 13.2606C13.1203 12.973 12.8324 12.6534 12.5766 12.3018C12.8324 11.9823 13.1203 11.6627 13.4081 11.3751C13.8879 10.8637 14.3677 10.5122 14.7515 10.2885C14.9753 10.1926 15.1353 10.1287 15.2952 10.1287C16.4786 10.1287 17.4701 11.0874 17.4701 12.3018C17.4701 13.4843 16.5106 14.475 15.2952 14.475C15.1672 14.475 14.9753 14.443 14.7515 14.3471ZM11.681 12.3338C11.681 12.3338 13.696 15.21 15.2952 15.21C16.8944 15.21 18.1737 13.9317 18.1737 12.3338C18.1737 10.7359 16.8624 9.45758 15.2952 9.45758C13.696 9.42562 11.681 12.3338 11.681 12.3338Z" fill="black"/>
<path d="M23.5 -2.97253e-06L2.31515e-06 23.5L0.500003 24L24 0.499997L23.5 -2.97253e-06Z" fill="black"/>
</svg>
