<svg width="36" height="24" viewBox="0 0 36 24" fill="none" xmlns="http://www.w3.org/2000/svg">
<path d="M1.80566 0H33.3057C34.2722 0 35.0557 0.716344 35.0557 1.6V22.4C35.0557 23.2837 34.2722 24 33.3057 24H1.80566C0.839166 24 0.0556641 23.2837 0.0556641 22.4V1.6C0.0556641 0.716344 0.839166 0 1.80566 0Z" fill="#EB6F93"/>
<path fill-rule="evenodd" clip-rule="evenodd" d="M17.3149 15.8818C15.4965 15.8482 13.9709 14.5106 13.9213 12.6098L13.5045 12.197C12.9885 11.6778 12.9045 10.9618 13.3197 10.5354L13.3629 10.4882C13.5413 10.305 13.7749 10.2058 14.0141 10.1922C13.7253 9.62423 13.8157 9.00183 14.2637 8.69463L14.3277 8.65223C14.8149 8.36903 15.2397 8.47863 15.6021 8.83863L15.1853 5.41143C15.0437 4.81543 15.4109 4.16343 15.9677 4.04503C16.2525 3.98403 16.5498 4.03928 16.7936 4.19852C17.0374 4.35776 17.2075 4.60778 17.2661 4.89303L17.9757 7.92663L18.8757 4.84343C19.0357 4.24263 19.6509 3.88023 20.2629 4.03623C20.8117 4.19863 21.1405 4.75543 21.0213 5.30983L20.0293 10.249L20.4549 10.3482C20.5797 10.3658 20.7405 10.4394 20.8925 10.6026C21.1701 10.8986 21.3053 11.389 21.2445 12.1034C21.0517 14.3994 19.9205 15.9058 17.3317 15.8826H17.3149V15.8818ZM17.3973 15.4242C19.6565 15.4202 20.6133 14.1306 20.7861 12.0642C20.8373 11.4698 20.7381 11.1082 20.5573 10.9154C20.5191 10.874 20.4735 10.8401 20.4229 10.8154C20.4062 10.8076 20.3884 10.8022 20.3701 10.7994L17.6885 10.173C17.6606 10.1656 17.6323 10.1597 17.6037 10.1554C17.4613 10.1273 17.3148 10.1276 17.1725 10.1562C16.9728 10.1905 16.8129 10.3407 16.7661 10.5378C16.6757 10.8386 16.6821 11.0682 16.8717 11.253C16.9203 11.2698 16.9617 11.3025 16.9893 11.3458C17.1229 11.4338 17.3109 11.5106 17.5645 11.5794L19.3309 11.9738C19.6253 12.0394 19.5349 12.4786 19.2389 12.4234L19.1813 12.4162C18.9434 12.3886 18.7022 12.416 18.4765 12.4962C18.0445 12.6602 17.7781 13.0306 17.7437 13.7186C17.7396 13.8007 17.692 13.8742 17.6189 13.9117C17.5458 13.9491 17.4582 13.9447 17.3893 13.9001C17.3203 13.8555 17.2804 13.7775 17.2845 13.6954C17.3213 12.937 17.6189 12.4354 18.0957 12.169L17.4541 12.025C17.2596 11.9743 17.0711 11.903 16.8917 11.8122C16.8171 11.9277 16.7203 12.0272 16.6069 12.105L16.5549 12.1386C16.5245 12.1594 16.4933 12.1786 16.4613 12.1946C16.6707 12.5899 16.6023 13.0751 16.2917 13.397L16.2461 13.445C15.8473 13.8524 15.1943 13.8613 14.7845 13.465L14.4405 13.1242C14.7221 14.501 15.9501 15.4234 17.3845 15.4234H17.3973V15.4242ZM20.5709 5.21623L19.5813 10.1442L17.8045 9.72903C17.5658 9.66487 17.3153 9.65775 17.0733 9.70823C16.8293 9.76183 16.6261 9.88423 16.4837 10.0786L16.1557 9.59063L15.6397 5.34263L15.6341 5.31383C15.5453 4.95783 15.7669 4.55703 16.0637 4.49383C16.2295 4.45868 16.4025 4.49134 16.5441 4.58451C16.6856 4.67769 16.784 4.82364 16.8173 4.98983L17.7261 8.87703C17.7382 8.93017 17.7688 8.97726 17.8125 9.00983C17.8726 9.05627 17.9518 9.06988 18.0239 9.04615C18.0961 9.02243 18.1517 8.96446 18.1725 8.89143L19.3189 4.96663C19.4123 4.60555 19.7796 4.38758 20.1413 4.47863C20.4545 4.5754 20.6413 4.89606 20.5709 5.21623ZM16.2789 10.5962L15.7717 9.84183C15.7517 9.8215 15.7357 9.79763 15.7245 9.77143L15.4917 9.42503C15.1965 8.99463 14.9077 8.84663 14.5701 9.04183L14.5221 9.07463C14.2581 9.25543 14.2213 9.69303 14.4957 10.1082L15.4997 11.6034C15.6787 11.866 16.0362 11.9346 16.2997 11.757L16.3477 11.725C16.4174 11.6773 16.4756 11.6147 16.5181 11.5418C16.2685 11.2818 16.2077 10.9618 16.2781 10.5962H16.2789ZM15.1189 11.861C15.3149 12.1492 15.6424 12.3199 15.9909 12.3154C16.1762 12.541 16.1627 12.8697 15.9597 13.0794L15.9165 13.1258C15.6949 13.3512 15.3331 13.3562 15.1053 13.137L13.8285 11.8722C13.4773 11.5186 13.4261 11.0834 13.6501 10.8546L13.6949 10.8066C13.8751 10.6224 14.163 10.5979 14.3717 10.749L15.1189 11.861Z" fill="white"/>
<path fill-rule="evenodd" clip-rule="evenodd" d="M10.8373 20.384H10.0557V17H10.8373V20.384ZM12.0221 17.0008L12.0221 17V17.0008H12.0221ZM12.0221 17.0008C12.0239 17.6193 11.7314 18.2018 11.2341 18.5696L10.9325 18.7944L12.1045 20.384H13.0677L11.9877 18.9208C12.5018 18.4145 12.7902 17.7224 12.7877 17.0008H12.0221ZM13.2941 20.384H14.0309V17H13.2941V20.384ZM19.7677 18.3072C19.9453 18.064 20.2141 17.9792 20.4941 17.9792H20.4949C21.0597 17.9792 21.4949 18.3512 21.4949 18.8968V20.388H20.7925V19.1528C20.7925 18.812 20.6141 18.628 20.3061 18.628C20.0181 18.628 19.7773 18.8008 19.7773 19.156V20.384H19.0685V18.044H19.7677V18.3072ZM15.6173 19.8144C15.2653 19.8144 14.9805 19.5448 14.9805 19.2144C14.9805 18.8832 15.2645 18.6144 15.6173 18.6144C15.9701 18.6144 16.2549 18.8832 16.2549 19.2144C16.2549 19.5448 15.9701 19.8144 15.6173 19.8144ZM16.2581 18.1944V18.044H16.9621V20.384H16.2581V20.2344C16.0597 20.3704 15.8197 20.4488 15.5589 20.4488C14.8741 20.4488 14.3189 19.8968 14.3189 19.2144C14.3189 18.532 14.8741 17.9792 15.5589 17.9792C15.8084 17.978 16.0524 18.0531 16.2581 18.1944ZM18.0509 18.348V18.044H17.3309V20.3848H18.0541V19.2928C18.0541 18.9248 18.4549 18.7264 18.7341 18.7264H18.7397V18.0448C18.4549 18.0448 18.1909 18.1672 18.0517 18.348H18.0509ZM22.4029 19.2144C22.4029 19.5448 22.6885 19.8144 23.0405 19.8144C23.3933 19.8144 23.6813 19.5448 23.6781 19.2144C23.6781 18.8832 23.3933 18.6144 23.0405 18.6144C22.6877 18.6144 22.4029 18.8832 22.4029 19.2144ZM23.6813 18.044V18.1944C23.4755 18.0532 23.2316 17.9781 22.9821 17.9792C22.2965 17.9792 21.7421 18.532 21.7421 19.2144C21.7421 19.8968 22.2965 20.4488 22.9821 20.4488C23.2421 20.4488 23.4829 20.3704 23.6813 20.2344V20.384H24.3837V18.044H23.6813ZM24.6933 19.996C24.6941 19.753 24.8911 19.5564 25.1341 19.556H25.1349C25.252 19.5554 25.3645 19.6014 25.4475 19.684C25.5306 19.7666 25.5773 19.8789 25.5773 19.996C25.5773 20.2401 25.3794 20.438 25.1353 20.438C24.8912 20.438 24.6933 20.2401 24.6933 19.996Z" fill="white"/>
</svg>
