<svg width="24" height="24" viewBox="0 0 24 24" fill="none" xmlns="http://www.w3.org/2000/svg">
<path d="M12 0C11.6844 0 11.4286 0.255829 11.4286 0.571429V11.4286H0.571429C0.255829 11.4286 0 11.6844 0 12C0 12.3156 0.255829 12.5714 0.571429 12.5714H11.4286V23.4286C11.4286 23.7442 11.6844 24 12 24C12.3156 24 12.5714 23.7442 12.5714 23.4286V12.5714H23.4286C23.7442 12.5714 24 12.3156 24 12C24 11.6844 23.7442 11.4286 23.4286 11.4286H12.5714V0.571429C12.5714 0.255829 12.3156 0 12 0Z" fill="black"/>
</svg>
