<svg width="24" height="24" viewBox="0 0 24 24" fill="none" xmlns="http://www.w3.org/2000/svg">
<g clip-path="url(#clip0)">
<path fill-rule="evenodd" clip-rule="evenodd" d="M15.6095 9.23083H12.6509V6.34621C12.6509 6.00006 12.4142 5.76929 12.0592 5.76929C11.7042 5.76929 11.4675 6.00006 11.4675 6.34621V9.23083H8.50889C8.15386 9.23083 7.91718 9.46159 7.91718 9.80775C7.91718 10.1539 8.15386 10.3847 8.50889 10.3847H11.4675V13.2693C11.4675 13.6154 11.7042 13.8462 12.0592 13.8462C12.4142 13.8462 12.6509 13.6154 12.6509 13.2693V10.3847H15.6095C15.9645 10.3847 16.2012 10.1539 16.2012 9.80775C16.2012 9.46159 15.9645 9.23083 15.6095 9.23083Z" fill="#010101"/>
<path fill-rule="evenodd" clip-rule="evenodd" d="M18.0947 17.5385C20.4615 15.8077 22 12.9231 22 9.80769C22 4.38462 17.503 0 11.9408 0C6.49704 0 2 4.38462 2 9.80769C2 15.2308 6.49704 19.6154 12.0592 19.6154C13.8343 19.6154 15.6095 19.1538 17.0296 18.3462L20.2249 23.7692C20.3432 24.1154 20.8166 24.2308 21.1716 24C21.5266 23.8846 21.645 23.4231 21.4083 23.1923L18.0947 17.5385ZM3.30178 9.80769C3.30178 5.07692 7.2071 1.26923 12.0592 1.26923C16.9112 1.26923 20.8166 5.07692 20.8166 9.80769C20.8166 14.5385 16.9112 18.3462 12.0592 18.3462C7.2071 18.3462 3.30178 14.5385 3.30178 9.80769Z" fill="#010101"/>
</g>
<defs>
<clipPath id="clip0">
<rect width="20" height="24" fill="white" transform="translate(2)"/>
</clipPath>
</defs>
</svg>
