<svg width="112" height="34" viewBox="0 0 112 34" fill="none" xmlns="http://www.w3.org/2000/svg">
<path d="M3.6308 10.5596L5.14364 8.96463C5.50456 8.58426 6.85746 7.15355 6.85746 6.65863C6.85746 6.11834 6.02324 6.09457 5.658 6.09457V5.66233C6.30636 5.67962 6.99146 5.73797 7.64846 5.75958C8.27305 5.73797 8.93005 5.67962 9.56328 5.66233V6.09457C8.34653 6.14211 8.12176 6.5268 7.33293 7.39128L5.2517 9.71456L9.58705 13.9548C10.1727 14.5059 10.3305 14.8474 11.1431 14.9749V15.4244C10.6893 15.3963 10.2181 15.3466 9.76859 15.3077C9.29313 15.3466 8.84144 15.3963 8.36598 15.4244L4.0825 10.8405L3.6308 11.2879V12.684C3.6308 14.1861 3.41468 14.8452 5.2128 14.9663V15.4158C4.37858 15.3877 3.52274 15.338 2.68203 15.2991C1.84565 15.338 1.00928 15.3877 0.133993 15.4158V14.9684C1.82405 14.856 1.71166 14.3201 1.71166 12.8072V3.89015C1.71166 3.3693 1.71167 2.16119 1.46313 1.72895C1.17353 1.21243 0.533815 1.21243 0 1.14544V0.713197L3.6308 0.00216293V10.5596Z" fill="#231F20"/>
<path d="M19.669 13.475C19.0423 14.0823 18.0762 14.7718 17.2031 14.7718C16.2889 14.7718 15.7702 13.9721 15.7702 13.1422C15.7702 11.3355 18.3204 10.4472 19.6604 9.79885L19.669 13.475ZM17.2485 10.3197C15.8113 10.9681 13.6695 11.7828 13.6695 13.6868C13.6695 14.9554 14.8236 15.6751 16.0144 15.6751C17.4019 15.6751 18.7051 14.9274 19.7619 14.0586C19.8606 14.5058 20.1053 14.9074 20.4575 15.2001C20.8097 15.4928 21.2493 15.66 21.707 15.6751C22.5391 15.6751 23.3755 14.9101 23.7364 14.1623L23.3041 13.9289C23.0534 14.2487 22.833 14.6442 22.377 14.6442C21.4952 14.6442 21.5903 12.9801 21.5903 12.4161V8.69232C21.5903 6.09888 20.4341 5.45053 17.9422 5.45053C16.7946 5.45053 13.8014 5.75526 13.8014 7.42586C13.7987 7.53732 13.8197 7.64807 13.8631 7.75078C13.9064 7.8535 13.9711 7.94583 14.0529 8.02165C14.1346 8.09746 14.2315 8.15504 14.3372 8.19056C14.4429 8.22607 14.5549 8.23872 14.6658 8.22766C15.2278 8.22766 15.5303 7.73707 15.5692 7.24216C15.6362 6.04918 16.5526 5.94544 17.6742 5.94544C19.5112 5.94544 19.6496 7.02604 19.6496 8.57129C19.6496 8.8155 19.6906 9.12023 19.468 9.21965L17.2485 10.3197Z" fill="#231F20"/>
<path d="M25.9149 6.43387V6.02973C27.0365 5.38137 28.169 4.47151 28.6488 3.18344H28.9859V5.82226H31.5556V6.43387H28.9859V12.8785C28.9859 13.9051 29.1891 14.9684 30.3842 14.9684C31.173 14.9684 31.5793 14.5124 32.0051 13.9483L32.4136 14.2531C32.0051 15.3337 30.8813 15.6773 29.7985 15.6773C28.169 15.6773 27.0625 15.0549 27.0625 13.3562V6.44036L25.9149 6.43387Z" fill="#231F20"/>
<path d="M37.1509 8.73338C37.421 7.25728 38.0889 5.95193 39.7811 5.95193C41.1988 5.95193 41.966 6.8726 41.966 8.27737C41.966 8.84576 41.2204 8.73338 40.8595 8.73338H37.1509ZM43.3189 13.2978C42.6425 14.2098 41.6289 14.9684 40.4791 14.9684C38.0716 14.9684 36.9456 12.5781 36.9456 10.4299L37.0385 9.34932H43.4962C43.7123 9.34932 44.0537 9.44009 44.0537 9.15265C44.0537 6.69754 41.966 5.46133 39.7638 5.46133C36.8354 5.46133 34.6828 8.01803 34.6828 10.8492C34.6828 13.7365 36.991 15.6838 39.7811 15.6838C40.5534 15.7107 41.3208 15.5521 42.0192 15.2212C42.7175 14.8903 43.3263 14.3967 43.7944 13.7819L43.3189 13.2978Z" fill="#231F20"/>
<path d="M53.1977 15.526H52.9708L52.8779 12.2842H53.3339C53.6905 13.7473 54.4642 15.1629 56.1218 15.1629C57.1117 15.1629 58.0151 14.6658 58.0151 13.5917C58.0151 12.295 56.7183 11.7677 55.7371 11.2771C54.4404 10.592 53.0335 9.85288 53.0335 8.15202C53.0335 6.58731 54.2784 5.45269 55.8301 5.45269C56.5915 5.45924 57.3403 5.64665 58.0151 5.99947L58.4581 5.4743H58.7304L58.6807 8.28385H58.2333C57.8314 7.15139 57.3321 5.9476 55.9187 5.9476C55.1839 5.9476 54.4901 6.37984 54.4901 7.19893C54.4901 8.37894 55.7155 8.78092 56.5735 9.25855C58.121 10.0712 59.5322 10.6612 59.5322 12.7035C59.5322 14.5513 57.9697 15.673 56.2407 15.673C55.3513 15.6842 54.4825 15.405 53.7661 14.8776L53.1977 15.526Z" fill="#231F20"/>
<path d="M65.227 9.98687C65.227 9.0662 65.227 8.25792 65.6981 7.45828C65.928 7.05995 66.2598 6.72993 66.6593 6.50206C67.0588 6.2742 67.5118 6.15668 67.9717 6.16156C70.4333 6.16156 71.0946 8.49133 71.0946 10.5445C71.0946 12.5976 70.3684 14.9619 67.9263 14.9619C67.118 14.9619 66.2405 14.6658 65.7197 14.0499C65.1989 13.434 65.227 12.3512 65.227 11.5883V9.98687ZM64.9503 5.44836C63.9108 5.68826 62.7891 5.97786 61.674 6.13563V6.5938C62.3958 6.5938 63.0139 6.50519 63.1868 7.32644C63.2992 7.84297 63.2992 9.41632 63.2992 10.0452V18.9061C63.2992 20.3887 63.4353 20.9506 61.7431 21.0673V21.4995C62.6422 21.4758 63.5499 21.4239 64.4597 21.4001C65.294 21.4239 66.1238 21.4758 66.9667 21.4995V21.0673C65.0627 20.9744 65.2378 20.3908 65.2378 18.7656V14.3892C65.665 14.8085 66.1721 15.1378 66.7289 15.3576C67.2858 15.5774 67.8811 15.6831 68.4795 15.6687C71.3237 15.6687 73.3487 13.3691 73.3487 10.6158C73.3487 7.6852 71.3237 5.46998 68.3434 5.46998C66.8781 5.45485 65.8364 6.11833 64.9546 7.31996L64.9503 5.44836Z" fill="#231F20"/>
<path d="M82.2096 13.475C81.5764 14.0823 80.6125 14.7718 79.7394 14.7718C78.823 14.7718 78.3065 13.9721 78.3065 13.1422C78.3065 11.3355 80.8632 10.4472 82.2096 9.79885V13.475ZM79.7804 10.3197C78.3454 10.9681 76.2037 11.7828 76.2037 13.6868C76.2037 14.9554 77.3513 15.6751 78.555 15.6751C79.9404 15.6751 81.2435 14.9274 82.296 14.0586C82.3964 14.5049 82.6416 14.9055 82.9934 15.1979C83.3453 15.4903 83.784 15.6581 84.2411 15.6751C85.0775 15.6751 85.9074 14.9101 86.2705 14.1623L85.8382 13.9289C85.5897 14.2487 85.3606 14.6442 84.9089 14.6442C84.0315 14.6442 84.1223 12.9801 84.1223 12.4161V8.69232C84.1223 6.09888 82.9704 5.45053 80.4699 5.45053C79.3287 5.45053 76.3398 5.75526 76.3398 7.42586C76.3371 7.53732 76.3581 7.64807 76.4015 7.75078C76.4449 7.8535 76.5095 7.94583 76.5913 8.02165C76.673 8.09746 76.7699 8.15504 76.8756 8.19056C76.9813 8.22607 77.0934 8.23872 77.2043 8.22766C77.7684 8.22766 78.0558 7.73707 78.1033 7.24216C78.1638 6.04918 79.0867 5.94544 80.2083 5.94544C82.0497 5.94544 82.1837 7.02604 82.1837 8.57129C82.1837 8.8155 82.2291 9.12023 82 9.21965L79.7804 10.3197Z" fill="#231F20"/>
<path d="M96.2185 11.6769C96.2185 13.4577 95.5701 15.07 93.5429 15.07C91.1029 15.07 90.4481 12.7165 90.4481 10.6849C90.4481 8.71393 91.0964 6.16805 93.5429 6.16805C94.8396 6.16805 96.2185 7.03252 96.2185 8.47404V11.6769ZM99.9941 14.9468V14.4908C99.2614 14.4908 98.6606 14.5319 98.3624 13.7495C98.1462 13.166 98.1462 12.0206 98.1462 11.4003V0L94.5349 0.711034V1.14327C96.1536 1.1865 96.2271 1.91482 96.2271 3.27205V6.84234C95.4145 5.89141 94.241 5.45485 92.9983 5.45485C90.1433 5.45485 88.2026 7.93158 88.2026 10.6849C88.2026 13.4945 90.1671 15.6773 92.9983 15.6773C94.5414 15.6773 95.5593 15.137 96.5232 13.9635C96.5794 14.5548 96.7297 15.1334 96.9684 15.6773L99.9941 14.9468Z" fill="#231F20"/>
<path d="M104.47 8.73338C104.736 7.25728 105.414 5.95193 107.096 5.95193C108.513 5.95193 109.281 6.8726 109.281 8.27737C109.281 8.84576 108.542 8.73338 108.185 8.73338H104.47ZM110.627 13.2978C109.957 14.2098 108.941 14.9684 107.796 14.9684C105.388 14.9684 104.26 12.5781 104.26 10.4299L104.351 9.34932H110.817C111.033 9.34932 111.379 9.44009 111.379 9.15265C111.379 6.69754 109.281 5.46133 107.074 5.46133C104.152 5.46133 102.002 8.01803 102.002 10.8492C102.002 13.7365 104.308 15.6838 107.096 15.6838C108.794 15.6838 110.041 15.083 111.103 13.7819L110.627 13.2978Z" fill="#231F20"/>
<path d="M31.0888 29.0486C31.0162 28.8589 30.8851 28.6971 30.7146 28.5868C30.544 28.4765 30.3428 28.4232 30.14 28.4348C29.563 28.4348 29.2755 28.7784 29.2755 29.1783C29.2755 29.3641 29.3404 29.6905 29.9455 29.9325L30.5679 30.1832C31.7133 30.6479 32.0289 31.2984 32.0289 32.0073C32.04 32.2723 31.9958 32.5368 31.8991 32.7839C31.8024 33.031 31.6554 33.2553 31.4674 33.4425C31.2794 33.6297 31.0545 33.7757 30.807 33.8713C30.5595 33.9669 30.2948 34.0099 30.0298 33.9977C29.7548 34.0115 29.4803 33.9624 29.2271 33.8542C28.974 33.746 28.7488 33.5814 28.5688 33.3731C28.264 33.0406 28.0805 32.6149 28.048 32.165L28.9881 31.9597C28.9881 32.2443 29.0789 32.5214 29.2474 32.7507C29.3437 32.8721 29.4672 32.9691 29.6081 33.0337C29.7489 33.0983 29.903 33.1287 30.0579 33.1224C30.1948 33.1261 30.331 33.1016 30.458 33.0503C30.585 32.999 30.7 32.9221 30.796 32.8243C30.8919 32.7266 30.9666 32.6101 31.0155 32.4821C31.0644 32.3542 31.0864 32.2176 31.0801 32.0807C31.0801 31.4475 30.596 31.1882 30.1875 31.0196L29.5932 30.7689C29.081 30.5528 28.3268 30.1205 28.3268 29.1977C28.3268 28.3592 28.9751 27.5595 30.1421 27.5595C30.5948 27.5394 31.0387 27.6889 31.387 27.9788C31.5831 28.1546 31.7444 28.3658 31.8625 28.6012L31.0888 29.0486Z" fill="#231F20"/>
<path d="M36.9045 27.6719V31.4108C36.8753 31.7817 36.9422 32.1539 37.099 32.4914C37.2208 32.6875 37.3906 32.8493 37.5924 32.9615C37.7941 33.0737 38.0212 33.1326 38.252 33.1326C38.4829 33.1326 38.7099 33.0737 38.9117 32.9615C39.1134 32.8493 39.2832 32.6875 39.405 32.4914C39.5633 32.1544 39.6311 31.7819 39.6017 31.4108V27.6719H40.5613V31.6615C40.584 32.2525 40.3772 32.8295 39.9842 33.2716C39.7603 33.5014 39.4926 33.6841 39.197 33.8088C38.9013 33.9335 38.5837 33.9978 38.2628 33.9978C37.9419 33.9978 37.6243 33.9335 37.3287 33.8088C37.033 33.6841 36.7654 33.5014 36.5414 33.2716C36.1494 32.8289 35.9428 32.2524 35.9644 31.6615V27.6719H36.9045Z" fill="#231F20"/>
<path d="M45.8908 27.6719C46.645 27.6719 47.1291 27.7648 47.5289 28.035C47.7622 28.1988 47.9513 28.4176 48.0795 28.6722C48.2077 28.9267 48.271 29.2089 48.2638 29.4938C48.2778 29.8987 48.1469 30.2954 47.8945 30.6123C47.6421 30.9293 47.2849 31.1458 46.8871 31.2228L48.8322 33.8745H47.6889L45.9102 31.3351H45.7438V33.8745H44.795V27.6719H45.8908ZM45.733 30.5182H46.0312C46.2906 30.5182 47.3517 30.4901 47.3517 29.5046C47.3517 28.6293 46.524 28.545 46.055 28.545H45.7287L45.733 30.5182Z" fill="#231F20"/>
<path d="M53.8634 27.6719C54.3396 27.6474 54.8125 27.7639 55.2228 28.0069C55.4665 28.1756 55.6645 28.4021 55.7992 28.6661C55.9339 28.9301 56.0009 29.2234 55.9943 29.5197C56.0003 29.777 55.9491 30.0323 55.8444 30.2674C55.7398 30.5025 55.5843 30.7114 55.3892 30.8791C54.9606 31.219 54.4226 31.3904 53.8764 31.3611H53.4441V33.8832H52.4954V27.6719H53.8634ZM53.4463 30.4815H53.8785C54.6976 30.4815 55.0866 30.0816 55.0866 29.5046C55.0866 29.1588 54.9483 28.545 53.8677 28.545H53.4506L53.4463 30.4815Z" fill="#231F20"/>
<path d="M60.8138 27.6719C61.5681 27.6719 62.0522 27.7648 62.452 28.035C62.6852 28.1988 62.8743 28.4176 63.0025 28.6722C63.1307 28.9267 63.194 29.2089 63.1868 29.4938C63.2009 29.8987 63.0699 30.2954 62.8175 30.6123C62.5652 30.9293 62.2079 31.1458 61.8101 31.2228L63.7444 33.8745H62.6054L60.8289 31.3351H60.6604V33.8745H59.7116V27.6719H60.8138ZM60.6604 30.5182H60.9586C61.2179 30.5182 62.2791 30.4901 62.2791 29.5046C62.2791 28.6293 61.4513 28.545 60.9824 28.545H60.6604V30.5182Z" fill="#231F20"/>
<path d="M68.3693 27.6719V33.8767H67.4206V27.6719H68.3693Z" fill="#231F20"/>
<path d="M75.283 29.0486C75.2095 28.8591 75.0779 28.6977 74.9071 28.5874C74.7363 28.4772 74.535 28.4238 74.3321 28.4348C73.7572 28.4348 73.4676 28.7784 73.4676 29.1783C73.4676 29.3641 73.5324 29.6905 74.1375 29.9325L74.76 30.1832C75.9054 30.6479 76.2209 31.2984 76.2209 32.0073C76.232 32.2725 76.1878 32.5372 76.091 32.7845C75.9942 33.0317 75.847 33.2561 75.6587 33.4433C75.4705 33.6305 75.2453 33.7765 74.9976 33.872C74.7498 33.9674 74.4849 34.0103 74.2197 33.9977C73.945 34.0113 73.6709 33.9622 73.4181 33.8539C73.1653 33.7457 72.9406 33.5813 72.7609 33.3731C72.4561 33.0406 72.2725 32.6149 72.24 32.165L73.178 31.9597C73.1787 32.2445 73.2703 32.5216 73.4395 32.7507C73.5353 32.8721 73.6585 32.9691 73.799 33.0337C73.9395 33.0983 74.0933 33.1287 74.2478 33.1224C74.3848 33.1261 74.5211 33.1016 74.6482 33.0503C74.7753 32.999 74.8905 32.9221 74.9866 32.8244C75.0827 32.7267 75.1576 32.6103 75.2067 32.4823C75.2559 32.3544 75.2782 32.2177 75.2722 32.0808C75.2722 31.4475 74.7881 31.1882 74.3796 31.0196L73.7831 30.7689C73.2709 30.5528 72.5188 30.1205 72.5188 29.1977C72.5188 28.3592 73.1672 27.5595 74.3321 27.5595C74.7854 27.5391 75.2301 27.6886 75.5791 27.9788C75.7738 28.1553 75.9343 28.3664 76.0524 28.6012L75.283 29.0486Z" fill="#231F20"/>
<path d="M83.569 28.5623H81.0944V30.1335H83.4955V31.0282H81.0944V32.9733H83.569V33.8659H80.1457V27.6719H83.569V28.5623Z" fill="#231F20"/>
</svg>
